<svg xmlns="http://www.w3.org/2000/svg" viewBox="0 0 537.4 542.4"><defs><style>.cls-1{fill:#98d8e8;}.cls-2{fill:#f9f5df;}.cls-3{fill:#da6;}.cls-4{fill:#a86d30;}.cls-5{fill:#e1a860;}.cls-6{fill:#070707;}.cls-7{fill:#141415;}.cls-8{fill:#e1c3a2;}.cls-9{fill:#f8dab4;}.cls-10{fill:#edba6d;}.cls-11{fill:#85491f;}.cls-12{fill:#a48b76;}.cls-13{fill:#202231;}.cls-14,.cls-15{fill:none;stroke-miterlimit:10;stroke-width:0.91px;}.cls-14{stroke:#000;}.cls-15{stroke:#070707;}.cls-16{fill:#817e7c;}</style></defs><title>chow</title><g id="Layer_1" data-name="Layer 1"><rect class="cls-1" x="-13.15" y="-8.21" width="569.13" height="574.43"/></g><g id="Layer_2" data-name="Layer 2"><path class="cls-2" d="M157.08,312.24c.79,3.62,2.26,7.65,5.72,9,5,1.93,9.74-2.86,13.36-6.76,5.66-6.1,13.54-11.49,21.72-9.94a23,23,0,0,1,6.43,2.45,49.2,49.2,0,0,1,11.31,8.27c3.28,3.21,6.53,7.11,11.08,7.7a13.6,13.6,0,0,0,7.66-1.7c13.71-6.8,20-25.45,13.2-39.16-3.29-6.64-8.94-11.76-14.46-16.7l-17.6-15.77c-2.86-2.56-5.77-5.16-9.27-6.73-12.78-5.75-32.48,4.22-39.71,15.54C156.67,273.86,153.23,294.48,157.08,312.24Z"/><path class="cls-3" d="M151.11,201.57c9.24,6.63,27.88-1.25,33.38-11.2,6.16-11.13,1.32-22.41.46-35.1-.72-10.62-5.14-27.08.45-36.14-3.36-4.76-10.76-4.73-15.81-1.81s-8.48,7.89-12.39,12.2c-7,7.75-15.84,13.63-23.55,20.71-22.71,20.86-35,51.36-58.25,71.57-1.35,1.17-2.83,2.5-3,4.28-.2,2.81,2.94,4.52,5.58,5.5l40.27,15c5.5,2,11.26,4.13,17.08,3.41s11.63-5.21,11.7-11.07c.09-7.78-8.69-12-14-17.67-6.21-6.54-7.52-16.85-4.28-25.09C133.74,183.46,142.21,195.19,151.11,201.57Z"/><path class="cls-4" d="M321.61,113.91c9.08,1.34,17.56,5.27,25.71,9.49q8.44,4.36,16.63,9.2c2.87,1.69,5.81,3.52,7.63,6.3,4.45,6.77.66,15.73,1,23.83.39,10.83,8.12,19.74,14.3,28.64a118.88,118.88,0,0,1,17,36.47c.58,2.13.52,5.26-1.67,5.6a4.06,4.06,0,0,1-2.4-.65c-15.16-7.78-30.51-15.69-43.13-27.14-8.6-7.8-15.79-17.12-24.93-24.28-9.7-7.59-21.51-12.68-29.5-22-7.12-8.35-12.1-22.69-8.61-33.64C297.25,114.25,310.58,112.29,321.61,113.91Z"/><path class="cls-3" d="M177.47,169.61l4.29,1.81a4,4,0,0,1-3.25-3.75A22.15,22.15,0,0,0,180,151.35l3.74,1.78a27.42,27.42,0,0,1-9.33-17.67,5.51,5.51,0,0,1,2.88,2.45A21.74,21.74,0,0,0,176,128a6.08,6.08,0,0,1,3.88-.56l2.16-11.14a32.78,32.78,0,0,0,21.44,1.6c9.1-2.45,16.69-8.72,25.62-11.75C247.45,100,268,108.71,281.9,122c3.59,3.45,7,7.37,8.33,12.13,2.18,7.73-1.45,15.79-5.19,22.91-2.68,5.09-5.54,10.91-3.59,16.31,2.09,5.81,9,8.79,11.39,14.48,2.19,5.18,0,11.16-3.05,15.87s-7.13,8.88-9.28,14.07-1.75,12.06,2.89,15.31c4.88,3.42,11.61,1.28,17.15-1,3.27,2.21,3.06,7.28.81,10.5s-5.87,5.16-9.09,7.44a43.35,43.35,0,0,0-12.18,13.25c-25.28-28.45-67-41.66-104.37-33.07a25.72,25.72,0,0,0-6.73,2.3,49.38,49.38,0,0,0-5.85,4.33A35.27,35.27,0,0,1,144.3,244a41.47,41.47,0,0,1-.54-10.14c-6.3-1.24-13.18-2.82-17-7.88a26,26,0,0,1-3.42-7.07l-7.78-21.36c-.46-1.26-.91-2.7-.28-3.88,1-1.8,3.55-1.71,5.46-2.48,3.84-1.55,4.81-6.69,8.26-9,5.22-3.45,11.94,1.46,15.73,6.4s8.47,11,14.68,10c4.69-.71,12.59-7.64,16-10.65C177.88,185.77,182.67,171.8,177.47,169.61Z"/><path class="cls-2" d="M127,246.38l-27-10.85c-9.43-3.8-19.12-7.66-29.92-9.07-3.43-.45-7.5-.51-9.83,1.23s0,5.44,3.27,4.63l-4.94.86L62.23,235l-5.08,1.84,6.74.3a8,8,0,0,1-3.6,1.39,20.71,20.71,0,0,1,7.66,2.3l-8.81,1,12.43,4.3-8.42.19A36.19,36.19,0,0,0,75.71,251l-10.43-.76a23.49,23.49,0,0,1,12.43,4.12l-12.89.7L78,259.21l-17,.26,5.25,1.78c-1.26,1.61-4,2.64-6.74,2.52l13.43,1.64a58.5,58.5,0,0,1-12.83,1.69l12,1.09-10.65,7.08a27,27,0,0,0,11.08-1.16l-10.18,3.07,14.42-.65-7.91,5.76,7.7-2.22a37.78,37.78,0,0,1-9.5,8.86,24,24,0,0,0,7.68-4.44A37.25,37.25,0,0,0,62.34,295l9.26-4a67.9,67.9,0,0,0-8.36,12.42l7.45-5.58a62.56,62.56,0,0,1-7.82,10.72,15.28,15.28,0,0,1,7-5.73,58.13,58.13,0,0,1-5.7,13A29.25,29.25,0,0,0,74.85,308l-2.91,12.27,7.21-7.8-4.76,11.21L85.14,311.2l-5.76,11.09a60.81,60.81,0,0,1,12.88-14.6,18.15,18.15,0,0,1-3.4,12.06L108,302.69l-5.93,9.13,7.49-16.21-3.45,7.22a55.24,55.24,0,0,1,15.33-21.09C134.69,270.12,151.54,256.25,127,246.38Z"/><path class="cls-5" d="M137,309.21c1.9,1.92,5.38,1.19,7.23-.78s2.52-4.75,3.13-7.39c3.28-14,7.32-28.22,15.38-40.17S183.6,239.36,198,238.44c5.39-.34,11,.61,15.43,3.75,5.91,4.24,8.6,11.64,13.59,16.92s11.9,8.2,16.05,14c2.67,3.72,3.92,8.27,4.77,12.77.77,4.07,1.3,8.3,3.36,11.89,4.79,8.34,18.14,9.83,24.65,2.75,6.25-6.79,5.19-17.54,2-26.2-8.73-23.58-30.13-41-53.93-49.18-7.17-2.45-14.73-4.17-22.29-3.67a57.06,57.06,0,0,0-16.92,4.18c-16.49,6.45-32.86,18.5-42,34C136.43,270.15,127.3,299.39,137,309.21Z"/><path class="cls-6" d="M266.73,228.24c-2.83,1.63-6.34.29-9.52-.45s-7.49-.13-8.25,3c-.69,2.87,2.17,5.3,4.83,6.57a33.26,33.26,0,0,0,16.63,3.13c2-.14,4.43-1,4.52-2.95.07-1.46-1.27-2.57-2.5-3.37A70.29,70.29,0,0,0,265,230"/><path class="cls-6" d="M175.2,229.41a5.69,5.69,0,0,0-.49-6.37c-2.3-2.78-6.88-2.6-9.84-.54s-4.67,5.46-6.12,8.77q-1.07,2.44-2,4.92a1.54,1.54,0,0,0-.13,1.17c.21.46.78.59,1.28.65a16.89,16.89,0,0,0,17-9.95"/><path class="cls-7" d="M184.49,312.24a35.35,35.35,0,0,0,10,5.87,15.83,15.83,0,0,0,11.35,0,2.84,2.84,0,0,0,1.65-1.39,3.11,3.11,0,0,0-.22-2.13,57,57,0,0,0-7.47-14.14,3.85,3.85,0,0,0-2.54-1.91,3.75,3.75,0,0,0-2.51,1.13,34.71,34.71,0,0,0-9.34,12.14"/><path class="cls-8" d="M222.41,269.35c4.56,1.35,7.48,5.67,10,9.68l13,20.51c3.21,5.06,6.63,10.34,11.87,13.24a18.08,18.08,0,0,0,9.94,2.2c4.38-.31,9.65-1.91,12.55,1.38,2.22,2.51,1.39,6.66-.88,9.13s-5.56,3.67-8.71,4.81c-8.67,3.13-18,6.46-26.9,4-10.73-2.92-17.66-13.47-21.11-24-2.93-9-3.86-18.52-7-27.43C213.27,277.25,211.63,266.15,222.41,269.35Z"/><path class="cls-9" d="M223.89,212.73c-1.74-2.92-3.52-6-3.82-9.35s1.38-7.2,4.61-8.22,6.5.91,9.3,2.75l7.6,5c3.45,2.27,7,4.7,8.88,8.4s1.58,8.08.28,12a6.12,6.12,0,0,1-1.47,2.62c-1.24,1.15-3.1,1.25-4.78,1.17C234.08,226.55,229.1,221.46,223.89,212.73Z"/><path class="cls-9" d="M189.75,200c-4.81-.58-10.78-.62-13.22,3.57a8.58,8.58,0,0,0-.63,6.29,11.05,11.05,0,0,0,6.31,7.71,8.31,8.31,0,0,0,9.4-2.22c3.08-3.89,1.43-9.55-.36-14.18l-1.42-.24"/><path class="cls-10" d="M283,209.12c2.76-4.67,5-10.28,3.3-15.42-2.06-6.08-9.14-9.62-10.5-15.89-1.54-7.07,4.78-13.09,8.28-19.42,7.51-13.58,1.17-32-11.58-40.86s-30-9.25-44.67-4.34c-9.45,3.15-18.42,8.34-28.35,9.06s-21.5-5.32-22-15.27a11.38,11.38,0,0,1,9.33,3.76,7,7,0,0,1,2.05-4.91l7.13,4.71c.89-8.73,12.31-11.2,21.08-11.39L260,98.21c9.92-.21,21,0,28.2,6.75,8,7.47,8.17,19.76,10.8,30.37a59.74,59.74,0,0,0,17.9,29.83c7,6.32,15.5,10.91,22.29,17.48,10.58,10.25,16.51,24.76,27.88,34.13,6.88,5.67,15.36,9.11,22.28,14.73,18.68,15.17,22,43.22,15.4,66.38-1.24,4.38-2.89,8.86-6.21,12s-8.75,4.4-12.5,1.81c-2.51-1.74-3.75-4.74-4.93-7.56a203.7,203.7,0,0,0-19.85-36.48c-7-10.18-15.22-20-26.27-25.47-16.27-8-30.89-1.39-47.22-4.16S276.88,219.5,283,209.12Z"/><path class="cls-11" d="M327.53,130.27c4.7,3,5.85,9.24,6.58,14.77l1.16,8.9a16.26,16.26,0,0,1-.08,6.83c-.67,2.2-2.58,4.19-4.88,4.18-2,0-3.68-1.45-5.14-2.83C320.79,158,301.45,142.53,303,136,304.59,129.07,322.46,127,327.53,130.27Z"/><path class="cls-2" d="M280.09,263.32c2.31-5.06,15-30,20.45-31.19,14.92-3.39,55.17,15.08,65,26.82s16.44,37,26.56,48.44c2.88,3.27,2.21,11,6.32,12.47,16.91,5.95,11.56-35.3,16.46-46.47,3.46-7.87,7-16,7.31-24.58.57-14.58-2.38-37.4-8.28-50.88-6.5-14.84-19.42-26.93-21.57-43.58.42,3.26,14.91,13.75,17.64,17.08a110.48,110.48,0,0,1,14.9,23.78c8.1,17.56,9.08,34.46,9.15,53.48l.42,105.82c0,8.93,0,18-2.58,26.56s-8.35,16.59-16.69,19.78c-6.93,2.65-14.68,1.67-21.91,0-30-6.84-56.71-25.53-74.82-50.23-9.14-12.46-24.5-22.7-28.65-37.6C286.39,300.87,274.79,275,280.09,263.32Z"/><path class="cls-3" d="M75.39,184.06c2.82-24.25,23.09-43.93,46.2-51.79a66.34,66.34,0,0,1,12.06-3,37.28,37.28,0,0,1,18.25,1.54,4.33,4.33,0,0,1,2.13,1.38c1.25,1.79-.43,4.13-2,5.59-4.29,3.85-9,7.23-13.12,11.23-4.9,4.73-8.94,10.26-13.13,15.63C116,177.2,106.29,194.61,94.83,205.6c-5.92,5.68-6.17,10.78-12.42,3.75C78.42,204.86,74.75,189.56,75.39,184.06Z"/><path class="cls-11" d="M96,168.78a36.79,36.79,0,0,1,6.79-6.1c11.91-9,25.11-18.12,40-18.24.39,3.36-1.36,6.66-3.74,9.06s-5.37,4.08-8.21,5.92c-12.38,8-19.2,19.9-29.81,29.37C87.93,200.5,89.85,176.45,96,168.78Z"/><path class="cls-12" d="M187.58,353.91a26.13,26.13,0,0,0,22.06-2.29,6.51,6.51,0,0,1,2.53-1.14,6,6,0,0,1,3.67,1.28c10.22,6.28,22.35,10.67,34.12,8.4s22.42-12.95,21.38-24.89c-12.35.83-25.19,1.59-36.65-3.08-6.65-2.71-12.49-7.12-19.12-9.87-8.66-3.58-18.22-4.16-27.58-4.59a12.29,12.29,0,0,0-4.56.36,10.37,10.37,0,0,0-4.61,3.82C169.3,334.43,172.14,348.41,187.58,353.91Z"/><path class="cls-13" d="M191.14,247.92c-3.49.25-7.12,1-9.84,3.17-2.91,2.37-4.33,6.07-5.62,9.6a2.8,2.8,0,0,0,.83,3.72l6.42,6.61c2.4,2.47,5,5.07,8.45,5.59a12.17,12.17,0,0,0,6.83-1.33,25.37,25.37,0,0,0,13.41-15.39C215.25,248,198.6,247.38,191.14,247.92Z"/><path class="cls-6" d="M185.25,254.34a10.79,10.79,0,0,0-4.47.29c-3.24,1.16-4.58,5.58-2.94,8.6A6.81,6.81,0,0,0,186,266.3a6.42,6.42,0,0,0,3.65-7.79c-1.11-3.15-4.69-4.83-8-5"/><path class="cls-6" d="M210.13,257.5c-.87-2.92-4.47-4.17-7.49-3.77a8,8,0,0,0-4.67,2.1,4.93,4.93,0,0,0-1.37,4.77c.88,2.87,4.43,3.82,7.42,4a51.65,51.65,0,0,0,6.49.06,1.5,1.5,0,0,0,.82-.21,1.34,1.34,0,0,0,.42-1,5.37,5.37,0,0,0-3.42-5.21"/><path class="cls-8" d="M110.81,325.2c-7,4.59-12.5,11-17.94,17.32-1.4,1.63-2.85,3.35-3.28,5.45-.76,3.68,1.78,7.16,4.17,10.06l38.67,47.13c6.11,7.45,12.36,15,20.41,20.3a72,72,0,0,0,18.81,8.25A146.53,146.53,0,0,0,236,438.31c15-2.29,29.56-6.91,44.47-9.8,23.69-4.59,48.67-4.95,70.51-15.2,6.44-3,13.42-9.22,11.06-15.92-1-2.78-3.38-4.77-5.65-6.65a224.9,224.9,0,0,1-54.32-66.85c-7.17-2.63-14.23,3.73-19.34,9.42-6.71,7.46-13.71,14.85-22.29,20s-19,8-28.77,5.61c-4.76-1.17-9.19-3.53-14-4.37-12.3-2.12-24.92,6-37,2.9-10.24-2.59-16.81-12.22-22.83-20.89C145.88,319.47,129.62,312.8,110.81,325.2Z"/><path class="cls-3" d="M397,176.53c10.62,20.35,21.45,41.55,21.62,64.13.08,11.13-2.46,22.11-5,33l-7,30.29c-.4,1.72-1.68,3.94-3.48,3.35-3.6-8.77,1.6-18.3,3-27.59,1.82-12.05-2.88-24-7.06-35.56-.79-2.19-1.58-4.46-1.3-6.75s1.44-4.11,2.24-6.16c3.45-8.86-.58-18.81-6.49-26.49s-13.67-14.09-19.1-22.06c-4.43-6.49-15.76-30.13-3.08-34.26C383.08,144.61,393.34,169.46,397,176.53Z"/><path class="cls-3" d="M408.75,401.71c3.92-.87,7.93-1.78,11.28-4s6-5.81,8-9.45c5.63-10,8.5-21.29,11.32-32.42L445,333.45c6,17.91,6.19,37.16,6.34,56l.41,48.38c0,2.64,0,5.52-1.69,7.58-1.31,1.63-3.39,2.42-5.38,3.05-21.07,6.67-43.86,3.72-65.65,0q-23.88-4-47.56-9.09c5.4-12.65,23.44-13.54,33.1-21.67,6-5,7.17-7.55,15.44-9.71C389.49,405.61,399.2,403.83,408.75,401.71Z"/><path class="cls-3" d="M200.82,440.5c15.17.65,30.78-1.73,45.31,2.67.62,3.12-3,5.25-6,6.26a166.66,166.66,0,0,1-92.73,3.49c-2.21-.55-4.5-1.21-6.13-2.8a13.16,13.16,0,0,1-2.75-4.91q-3.88-10.24-6.89-20.78c-1.77-6.2,27.72,6.26,29.24,6.9A114.73,114.73,0,0,0,200.82,440.5Z"/><path class="cls-14" d="M208.59,224.21c-5.94-.72-12.07-1.36-17.84.21-6.12,1.66-11.3,5.64-16.3,9.52s-10.23,7.95-14.5,12.79c-14.54,16.47-16.93,42.15-6.79,61.65"/><path class="cls-14" d="M233.85,227.94l4.46,6.16c1.1,1.52,2.2,3,3.33,4.54a177.8,177.8,0,0,0,24.81,26.85"/><path class="cls-14" d="M153,327.39c3,5.88,7.76,12.7,14.31,11.78,6.31-.88,9.08-8.21,11.2-14.22a98.55,98.55,0,0,1,6.66-14.8c1.52-2.75,3.49-5.67,6.55-6.4,4.32-1,8.17,2.71,11.09,6.06,8.58,9.81,18,19.4,29.89,24.7s26.89,5.47,37.07-2.66"/><path class="cls-14" d="M204.63,273.3c4.11-2.39,6-7.22,7.61-11.69.93-2.6,1.87-5.47.92-8.06-1.55-4.24-7-5.28-11.45-5.67l-7.54-.65c-3.61-.31-7.38-.6-10.72.79s-6,4.53-7.79,7.85c-1.19,2.22-2.12,4.79-1.46,7.22a11,11,0,0,0,2.57,4.16,69.3,69.3,0,0,0,8.87,8.53C193,281.68,197.71,277.33,204.63,273.3Z"/><path class="cls-14" d="M169.26,212.53a37.68,37.68,0,0,0,8.48-12.76"/><path class="cls-14" d="M188,333.63a25.57,25.57,0,0,1,18.18,12.14"/><path class="cls-14" d="M201.91,356.55,215.7,353a4.92,4.92,0,0,1,2.17-.23A5.35,5.35,0,0,1,220,354a31.34,31.34,0,0,0,17.05,6.55"/><path class="cls-14" d="M302.45,128.09a69.93,69.93,0,0,1,12.43-4.37,29.55,29.55,0,0,1,10.76-1,13.83,13.83,0,0,1,9.35,5c2.34,3.08,2.84,7.12,3.27,11l3.05,27.29"/><path class="cls-14" d="M146.83,129.33c-12.39-4.54-26.66-2.07-38,4.65s-20,17.3-26.44,28.83c-3.84,6.9-7,14.35-7.69,22.21s1.29,16.22,6.66,22"/><path class="cls-14" d="M250.49,234.88a14,14,0,0,1,1.26-8.68,43.18,43.18,0,0,1,12.16,2.9,18.18,18.18,0,0,1,9.18,8.18c.48,1,.82,2.23.13,3.07a3,3,0,0,1-1.62.84,23.11,23.11,0,0,1-21.4-5.53"/><path class="cls-14" d="M173.55,232.41c.51-2.49,1-5.09.34-7.53s-3-4.64-5.49-4.3c-2.24.3-3.76,2.37-5,4.25-3,4.51-6,9.09-7.7,14.23a17.14,17.14,0,0,0,15.7-6.78"/><path class="cls-14" d="M216.43,268.17c2.53-1.45,5.88-.45,8,1.51s3.42,4.69,4.75,7.29a100.44,100.44,0,0,0,21.62,28.37c3.92,3.59,8.76,7.05,14,6.41"/><path class="cls-14" d="M174.75,270.95l-10.63,20a54.37,54.37,0,0,1-3.58,6.08,27.29,27.29,0,0,1-9.44,8.26"/><path class="cls-14" d="M83.46,212.15c-2.92-.49-4.92,2.74-6.3,5.37a48.58,48.58,0,0,1-15.08,17.09A4.1,4.1,0,0,0,65,238.27L61.89,240c1-.82,1.51,1.49.57,2.33s-2.32,2.12-1.43,3l4,1.49L58.34,249l5.58,1.64L59.06,253l7.63.07-8.81,1.25A18.9,18.9,0,0,1,65,255.78l-11.43,3.85,16.34.24-6.57,3.57,3-1.2-4.65,2.25,5.53,0a10.85,10.85,0,0,0-5.79,2.55l9.17.06-8.55,4.18,7.14-.43A14.31,14.31,0,0,1,64,274.82l5.61,0a34.48,34.48,0,0,1-9.06,4.83l9.06-1-4.77,3.63h5.5a12.4,12.4,0,0,0-4.72,3.45l3.56.19-5,4.77,5-.07a4.31,4.31,0,0,0-2.36,2.23l5.62.34a21.54,21.54,0,0,0-4.89,5.26l3.46.17-2.76,2.27,3.35-1.22-2.62,2.89,14.43-.28A67.75,67.75,0,0,0,73,307.58h7.17a29.11,29.11,0,0,0-8.35,3.6l6.6.19-6,3.55c1.86-.33,1.62,3.06-.06,3.93s-4,1-4.82,2.71a51.08,51.08,0,0,1,17.17,1.75,30.35,30.35,0,0,1-8.45,4.38c.13-.68,1.36-.35,1.36.34s-.74,1.16-1.42,1.28A13.28,13.28,0,0,1,82,330l-7.74,5.14,10.39,1.09-8.69,4.85a39.17,39.17,0,0,0,10.71.33A40.14,40.14,0,0,0,76,346.82a32.06,32.06,0,0,1,9.66-1l-6.42,6.73A86.06,86.06,0,0,1,93,350l-7.53,7.8a19.85,19.85,0,0,1,6.88-3l-9.92,9.41,5-.23A25.56,25.56,0,0,1,85,371.26a46.72,46.72,0,0,1,15-3.1,49.94,49.94,0,0,1-8.21,17.4,10.67,10.67,0,0,1,1.64-5.05,27.49,27.49,0,0,1-3.28,9.11l18.3-9.49a22.42,22.42,0,0,1-5.82,5.84,15.81,15.81,0,0,1,5.65-4.57A50.65,50.65,0,0,1,101.21,392a70.09,70.09,0,0,1,13.46-7.1,74.7,74.7,0,0,0-11.14,11.73,35.93,35.93,0,0,1,9.55-5.94l-6.19,8.52a43.7,43.7,0,0,1,11.79-6.58,69.19,69.19,0,0,1-10.88,14.21,22.1,22.1,0,0,1,8.35-5.68L109,411.88a70.32,70.32,0,0,1,16.79-8.48,54.7,54.7,0,0,1-7.89,12.7,87,87,0,0,1,16.43-11.86,48.84,48.84,0,0,1-9.92,18.08,125.09,125.09,0,0,1,15.78-10.87,12.41,12.41,0,0,1-2.61,7,15.84,15.84,0,0,1,5-7.11,11.48,11.48,0,0,1-3,7.17,20.86,20.86,0,0,1,3.66-8.39,19.26,19.26,0,0,1-2.43,7.15"/><path class="cls-14" d="M153,123.88l-4.33-5.79,3.95,2.83c.14-2,4-1.43,3.61.53l.69-3.64a4.51,4.51,0,0,1,1.38,2.91l-.06-6.73a5.35,5.35,0,0,1,.63,3.23l-.1-3.42,3.81,4v-6.66l4.67,6.09a21.46,21.46,0,0,0-.55-7.11l1.92,4.7,0-8.93a16.5,16.5,0,0,1,2.85,5.35l.16-7.28,4.22,7.77,0-6.52,2.24,5.93.06-5.88,1.27,4.52.06-8a23.17,23.17,0,0,1,3.46,7.48l.06-9.52a25.69,25.69,0,0,0,2.38,7.58l.27-8.28a42.56,42.56,0,0,1,5.28,9.7,34.86,34.86,0,0,1,1.18-10.73,25.81,25.81,0,0,1,3.09,9.09l-1.93-11.67,2.54,13.33a32.84,32.84,0,0,1,1.91-14.2l1.64,8.63,1.28-13.12,3.61,11.3L205,89.35l6.57,13.29a20.36,20.36,0,0,0-1.23-9.84,39.72,39.72,0,0,0,3,8.59,41,41,0,0,0-.63-10.27l3.63,10.49V91.28l4.81,9.7.1-4.76,2.48,9a19.11,19.11,0,0,1,2-6.76,8.14,8.14,0,0,1,1.71,5.67A16.59,16.59,0,0,0,229,98a34.49,34.49,0,0,0,3.27,7.11l2-6.07a5.08,5.08,0,0,1,1.4,3.64l.89-4.36,2.27,3.84a5.46,5.46,0,0,1,1.28-3.75l2.29,1.78a8.88,8.88,0,0,1,3.84-4.7,13.08,13.08,0,0,1,3.6,4.77A54.86,54.86,0,0,1,253.91,90a34.08,34.08,0,0,1,2.47,14.42A36.57,36.57,0,0,1,261,92l.76,7.27a49.54,49.54,0,0,1,6.82-9.61l.79,10.47,6-10.45-.14,6.45,4.76-8.18a21.86,21.86,0,0,1-1.17,9.79l6.15-13.2a51.93,51.93,0,0,1-1.27,10.94,40,40,0,0,1,4.44-7.37L287,96.61l4.16-7.85L290.9,99a98,98,0,0,1,7.36-12.11l.09,12.34a47.28,47.28,0,0,0,5.45-10.43l.64,13.48A30,30,0,0,0,308,94.35a61.16,61.16,0,0,1-.78,14.54,134.64,134.64,0,0,1,8.3-19.44,111.58,111.58,0,0,1,.23,15.5l5-13.76-.17,16.46L326,97.1v9.55c-1.47-.32.32-2.82,1.55-2s1,2.71.69,4.18l6.28-5.06,0,9.77,3.61-5.39a32,32,0,0,1,.75,7.88,37.11,37.11,0,0,1,5.65-7.28l1.1,5,3.62-2.82a17.47,17.47,0,0,1-.81,6.27l2.51-2.28"/><path class="cls-14" d="M300.92,293.68c.34-5.41,1.72-10.92,5.07-15.19s8.94-7,14.25-5.95c9.73,2,15.51,15.36,25.35,14.06a9.75,9.75,0,0,0,8.19-8.67,32.51,32.51,0,0,1,16.73,14.78C375,301,376.44,312,384.69,316.5c5.56,3.05,12.74,1.89,18-1.59s9-8.94,11.89-14.59a83,83,0,0,0,4.18-65"/><path class="cls-14" d="M263.12,437.87a17.71,17.71,0,0,0,5.61-6.68,5.35,5.35,0,0,1,3.54,2.92c-.28-2.82,4.5-4.22,5.8-1.7l1.49-4.21,4.11,4.21a3.94,3.94,0,0,1,1.65-4.32,20,20,0,0,1,5,6.12,15,15,0,0,1,1.47-6.77,12.5,12.5,0,0,1,4.7,9.78,56.62,56.62,0,0,1,1.27-14,30.52,30.52,0,0,1,6.56,11.68A30.08,30.08,0,0,1,305,426a38.52,38.52,0,0,1,5.95,9.45l.28-6.74a18.28,18.28,0,0,1,5.91,5.35v-5.67a25.58,25.58,0,0,0,5.43,7.66L321.34,430l4.16,3.58-.61-10.83a15.75,15.75,0,0,0,3,5.78,20.91,20.91,0,0,0-.5-7.1,26.76,26.76,0,0,1,10.14,7.22l-3-8.62,8.74,8.79-4-13,7.68,8-.94-10.5,7.49,5.47a30.17,30.17,0,0,0-4.87-10.64,52.81,52.81,0,0,0,15.11,12.2,34.74,34.74,0,0,0-1.8-12.67,16.26,16.26,0,0,0,6.31,4.13,75.07,75.07,0,0,0-4.42-12.73l5.88,5.55a6.42,6.42,0,0,0-2.32-5.54"/><path class="cls-14" d="M101.39,197.27c.83.52,1.41-1,1.23-1.94a40.66,40.66,0,0,0-2.44-8.3l2.17,1.67a9.38,9.38,0,0,0-1.43-3.45,9.94,9.94,0,0,1,3.91,1.31,4.6,4.6,0,0,1-2.23-3.28,9.06,9.06,0,0,1,5.19,3.11l-2.85-4.64,3-.2a11,11,0,0,0-1-4.78,3.34,3.34,0,0,1,2.7,1.23,13,13,0,0,0-.14-5l6.36,3.36a12,12,0,0,0-2.29-4.37,6.84,6.84,0,0,1,4,1,8,8,0,0,0-1-5.27,6.16,6.16,0,0,1,4.42,1.56L119.65,164l3.48,2.5L122,160.85a16.89,16.89,0,0,1,4.19,2.65,5.8,5.8,0,0,0-.95-4.95,7,7,0,0,1,2.92,1.63l-.63-2.66,2.29,1.65a17.79,17.79,0,0,0-1.13-6.62,2.32,2.32,0,0,1,2.47,1l-.07-2.81a7.81,7.81,0,0,1,4.84,1l0-3.41a8.55,8.55,0,0,1,3.54.39l.07-2.88"/><path class="cls-14" d="M300.09,140.38a32.64,32.64,0,0,1,9.68.72,7,7,0,0,1-2.76,4.65l3.37.13-3.53,6.62,7.16-.45-1.77,2.66a10.69,10.69,0,0,1,5.05-1.08l-3.1,3c.57-.73,1.83.3,1.58,1.19s-1.22,1.34-2.08,1.68l6.31-.67a5.9,5.9,0,0,1-1.72,3.24l3.68-1.54-2.44,4.51a5.65,5.65,0,0,1,3.6-1l-3,5.46,4.86-1.76-2.38,2.88,5.26-1-1.75,3.9,5-2.11L329.22,176a5.46,5.46,0,0,1,3.57-1.06l-1.28,3a42.37,42.37,0,0,1,9.89-1.12l-1.83,3.43a23,23,0,0,1,7.11-1.66,13.65,13.65,0,0,0-2.3,4.67,20.39,20.39,0,0,1,9-1,13.32,13.32,0,0,1-2.86,5.52l4.66-1.3a15,15,0,0,1-4.22,6.46c1.17-1,3.09.5,3,2s-1.27,2.76-2.4,3.81l6.8-2.13a19.51,19.51,0,0,1-3.85,9.71,6.54,6.54,0,0,1,4.32-1.75l-.58,4.88,7.15-3.56a16.38,16.38,0,0,1-1.59,7.28l6.54-5.5a19.4,19.4,0,0,1-1.2,7l3.29-3.31-3.83,6.7,4.88-4.87-.7,5.34a10.4,10.4,0,0,1,5.91-1.74l-1.08,4.67,5.44-3.56-1,3.69a21.6,21.6,0,0,1,8.44-3.7,51.47,51.47,0,0,1-4.84,9.19l5.49-4.21a11.23,11.23,0,0,1-2,5.36L394,227a9.3,9.3,0,0,1-1.07,4.81,12.46,12.46,0,0,1,5-.6,8.19,8.19,0,0,1-3.19,4c2.3-.34,2.75,4.15.43,4.28a3.93,3.93,0,0,0,3.7.76"/><path class="cls-14" d="M384.92,132.5l6.71,0a14,14,0,0,1-3.12,4.75l6.09-1.46-1.8,6.34,9.15-2.17c-1,.61-2.1,1.4-2.17,2.57s1.9,2,2.24.86l-5,4.81a12.21,12.21,0,0,1,4.78-1.82,8,8,0,0,1-2.31,4.63l4.13-2a11.18,11.18,0,0,1-2.41,5.69l6.14-2.81a13.12,13.12,0,0,1-3.89,5l4.48-2.51-3.28,5.27,5.09-2L406,164.36l6.62-4.58a20.33,20.33,0,0,1-3.31,6.07,35.21,35.21,0,0,1,7.27-5.44,16.35,16.35,0,0,1-6.75,8.4l4.88-2.47a13.61,13.61,0,0,1-5.56,6.64l4.11-2.12-3,3.94a22.64,22.64,0,0,1,9-2.42,6.92,6.92,0,0,1-2.92,3.73l6.67.1a5.68,5.68,0,0,1-3.13,2.83c.72-1.24,2.82.35,2.34,1.7s-2.07,1.87-3.46,2.22l6.59-.18a6.33,6.33,0,0,1-2.47,4.23l7.49-1.78-1.8,4.86,6.19-.36-6.46,12.39a13.19,13.19,0,0,1,5.3.58,20.28,20.28,0,0,1-5.46,4.89l7,.12a5.78,5.78,0,0,1-1.79,4.67l7.83.18a11.82,11.82,0,0,1-6.41,3,15.62,15.62,0,0,1,6.64,1.93,10.71,10.71,0,0,1-6.75,1.67,6.63,6.63,0,0,1,5.44,2.44l-3.21,2.26a18,18,0,0,1,5.73,3.22l-3.74,2,2.63,1.71a4.36,4.36,0,0,1-3.38,2.5,19.71,19.71,0,0,1,6.38,4.17L439,239.64a7.91,7.91,0,0,1,3.38,2L437,243.91a11.08,11.08,0,0,1,6.81,3.07c-2.06.83-4.47,3.3-2.78,4.74"/><path class="cls-15" d="M193.35,256.11a75.22,75.22,0,0,1-1.15,21.19"/><path class="cls-15" d="M208.5,257.91A6,6,0,0,0,203,252.4a6.35,6.35,0,0,0-6.32,4.63,6.72,6.72,0,0,0,3.1,7.27,11,11,0,0,0,5.12,1.2,8.94,8.94,0,0,0,4.42-.7,3.83,3.83,0,0,0,2.23-3.62c-.17-1.5-1.92-2.72-3.27-2.05"/><path class="cls-15" d="M180.15,267.09a19.6,19.6,0,0,0,8.31-3.11c1.75-1.17,3.45-2.92,3.32-5s-2.06-3.66-3.91-4.73a8.65,8.65,0,0,0-3.25-1.27c-2.38-.28-4.68,1.26-6,3.26a19.67,19.67,0,0,0-2.39,6.74,11.41,11.41,0,0,1,5.85,5.19"/><path class="cls-15" d="M187.57,316.54a12.94,12.94,0,0,0,17.67,1.08"/><path class="cls-14" d="M138.91,424a10.3,10.3,0,0,0,9.1-3.64"/><path class="cls-14" d="M129.18,428.07c1.65-.18,2.88,1.44,3.74,2.86L139.63,442"/><path class="cls-14" d="M371.72,395.72a7,7,0,0,1,6-.16,8,8,0,0,0,.62-3.7l7.17,1.64a8.44,8.44,0,0,1-1.65-8.81l4,1.59a9.59,9.59,0,0,0-2.36-4.68,17,17,0,0,1,5.83,1.63L390,380a9.61,9.61,0,0,0,5.42,1.71l-1.4-3.86a10.59,10.59,0,0,0,4.17,2.44l-.22-8.56,4.36,1.76-2.14-5.34a11.6,11.6,0,0,1,5.29,3l-.41-5.84,4.15,1.6a9.87,9.87,0,0,0-1.72-6.39l3.49-.21.18-4.66,4.44,1.7c-.48.8-1.7-.6-1-1.25s1.8-.29,2.54.26a8.14,8.14,0,0,0-3-5.58l4.2,2.68-1.87-4.5c1.24.66,2.76-.76,2.75-2.16a6.21,6.21,0,0,0-1.83-3.69l3.88.07a13.66,13.66,0,0,0-.38-5.67,56.36,56.36,0,0,0,12-.88,28.39,28.39,0,0,0-10.36-9.76l9.64,5a6.24,6.24,0,0,0-2.21-5.24,6.93,6.93,0,0,0,4.27,2.26,17.68,17.68,0,0,0-6-8.38l6.49,3.47a11.63,11.63,0,0,0-3.51-5.55l7.16,3.21A9.26,9.26,0,0,0,436.1,316a3.23,3.23,0,1,0,1.18-6.17l4.08-.94-5.46-3a12.71,12.71,0,0,0,6.34-2l-6.46-2.85,8-.74a4.25,4.25,0,0,1-2.61-1l4.14-1.36-8.4-2.58a5.9,5.9,0,0,1,4.21-4l-6.81-1.19,12.07-3.42-5.84-1.11a5,5,0,0,1,5.37-2.89,12.42,12.42,0,0,1-8-1.83l2.46-2.35a12.43,12.43,0,0,1-6.07-2.46,3.83,3.83,0,0,1,3.21-2.58l-5-2.33a16.75,16.75,0,0,1,9.69-4.07l-4.2-1.36a5.55,5.55,0,0,1,4.43-1.34l-11.08-4.24a3,3,0,0,1,3.05-1.67,4.77,4.77,0,0,1-3.6-1.08l9.74-2-1.32-4.77"/><path class="cls-14" d="M439.7,305c.25,1.7,2.11,2.56,3.29,3.8,1.83,1.93,2,4.85,2,7.5,0,9.94-1.42,20.1,1.25,29.67a12.23,12.23,0,0,1,.78,4.87,23.79,23.79,0,0,1-.9,3.07c-1.84,6.61,3.75,12.75,5.72,19.32,2.07,6.9,0,14.26-.44,21.45-1.12,16.66,6.16,33,5,49.7"/><path class="cls-16" d="M194.28,278.81c3.88-.32,8.18-1.77,11.38.68,1.81,1.38,2.78,3.72,3.63,6a183,183,0,0,1,8,27.53c-2,2.54-6,1.61-8.09-.79s-3.08-5.75-4.51-8.72c-2.63-5.46-8.36-10.08-13.59-7.87-3.13,1.32-5.13,4.68-6.75,7.92s-3.22,6.73-6,8.73-7.31,1.68-8.77-1.66a9.47,9.47,0,0,1-.52-4.27c.39-7.8,3-19,7.62-25.2C182.1,273.76,186.79,279.42,194.28,278.81Z"/></g></svg>