<svg xmlns="http://www.w3.org/2000/svg" viewBox="0 0 537.4 542.4"><defs><style>.cls-1{fill:#ffc9bf;}.cls-2{fill:#c6c5c5;}.cls-3{fill:#efefef;}.cls-4{fill:#f2d8e8;}.cls-5{fill:#575757;}.cls-6{fill:#fff;}.cls-7{fill:#161616;}.cls-8{fill:#735639;}.cls-12,.cls-9{fill:none;stroke:#111212;stroke-miterlimit:10;}.cls-9{stroke-width:0.64px;}.cls-10{fill:#7ac1e4;}.cls-11{fill:#373838;}.cls-12{stroke-width:0.9px;}</style></defs><title>husky</title><g id="Layer_1" data-name="Layer 1"><rect class="cls-1" x="-26.48" y="-10.95" width="578.67" height="569.59"/></g><g id="Layer_2" data-name="Layer 2"><path class="cls-2" d="M237.7,83c-6.67-6.43-16-12.46-24.63-9.08-7.28,2.86-10.59,11.14-12.74,18.66a236.44,236.44,0,0,0-6.41,99.9A72.44,72.44,0,0,0,239,195c9.89-2.68,20.88-11,17.92-20.83-1.08-3.59-3.94-6.56-4.41-10.28-.78-6.21,5.94-11.34,12.2-11.16s11.78,4,16.57,8A131.18,131.18,0,0,1,294,173c2.27,2.51,4.92,5.32,8.3,5.25,4-.08,6.59-4,10-5.91,6.91-3.85,15.3.76,21.82,5.23,13.53,9.28,27.2,18.69,38.09,31s18.88,27.89,18.8,44.3c2.89-14.06,5.79-28.57,3-42.65-1.19-6.06-3.43-11.93-3.87-18.08-.87-12.08,5.14-23.42,8.5-35.05A83.16,83.16,0,0,0,382.86,82c-3-3.58-7.31-7.2-11.8-5.95a11.82,11.82,0,0,0-5,3.46c-9.24,9.46-14.76,22.24-24.78,30.87-10.38,8.94-24.58,12.42-38.27,12.29-11-.1-31.31-.71-40.49-7.63C252.83,107.73,246.88,91.9,237.7,83Z"/><path class="cls-3" d="M326.91,183.9c12.76,9.29,25.65,18.69,36,30.65s17.94,26.89,18.25,42.67c.2,10.14-2.61,20.12-6.22,29.6a175.78,175.78,0,0,1-41.42,63.09l12.75,5.32a94,94,0,0,0-21,28.58c-2.21,4.65-4.07,9.66-3.79,14.8s3.13,10.43,8,12.22c-7.36,5.15-3,16.65-4.66,25.48-2.05,10.84-14.32,17.28-25.33,16.57S278.48,446.13,269.3,440c-13.72-9.14-28.41-21.38-28.59-37.87-.08-7.72,3.17-15.15,3.36-22.87C244.39,367,237,355.84,228.5,347c-4.56-4.76-10-10.82-7.73-17,.81-2.24,2.52-4,3.69-6.08,3.29-5.81,1.89-13.3-1.45-19.09s-8.36-10.38-12.75-15.41c-16.05-18.38-23.9-44.92-16.09-68a13.2,13.2,0,0,1,2.67-5c2.37-2.48,6.05-3,9.43-3.6,18.38-3.25,35.05-12.52,51.34-21.64,4.49-2.52,9.63-6.24,9-11.35-.77-6.53-10.77-11.24-7.74-17.07-.18.35,29,17.14,33.58,17.1C307.1,179.58,313.09,173.84,326.91,183.9Z"/><path class="cls-4" d="M203.45,107.29c-1-3.73-2-8-.07-11.26a20.55,20.55,0,0,1,3.32-3.74c3.59-3.75,7-9.56,12-8.46,2.48.55,4.26,2.81,5.78,5a155.35,155.35,0,0,1,12.71,21.58c4,8.23,7.21,18.44,2.73,26.39-2.84,5-8.1,7.83-12.77,11-5.66,3.85-10.29,10.63-16.61,12.6C205.31,145.16,207.74,124,203.45,107.29Z"/><path class="cls-4" d="M375.52,95.86c2.24-.68,4.82-.85,6.79.41,2.42,1.54,3.21,4.66,3.64,7.5,3,19.67-1.59,39.61-6.13,59a122.71,122.71,0,0,1-18-20.32c-2.4-3.41-4.68-7.05-5.46-11.15C354.48,121.41,365.79,98.83,375.52,95.86Z"/><path class="cls-5" d="M199.27,68.45c-4.37,14.11-8.79,28.63-7.72,43.36A80.34,80.34,0,0,0,200,94.44c2.45-7,4-14.64,8.6-20.53s13.6-9.28,19.62-4.87c2.39,1.75,3.91,4.42,5.68,6.8a35.1,35.1,0,0,0,9.35,8.7c1.38,0,2.3-1.6,2.18-3a7.66,7.66,0,0,0-1.77-3.67C231.55,61.28,209.2,36.36,199.27,68.45Z"/><path class="cls-5" d="M349.87,106.75c3.76-3.67,6.23-8.42,9-12.88a96,96,0,0,1,16.18-19.52c2.23-2.06,5.1-4.16,8-3.38,3.72,1,4.77,5.68,5.2,9.51,1.55,14,4.06,28.37,12.06,39.93l-.11-40.76c0-7.7-.51-16.45-6.44-21.36-5.52-4.56-14-3.83-20.15-.19C357.75,67.5,343.76,95,336,111.34,340.95,112.89,346.24,110.3,349.87,106.75Z"/><path class="cls-5" d="M190.95,265.47c13,20.3,26.42,41.79,25.56,64.78-.14,3.63-.62,7.33.54,10.83,1.28,3.85,4.42,7,7.32,10.22a141,141,0,0,1,15,19.61c3,4.79,5.78,9.88,6.06,15.28.45,8.49-5.16,16.29-10.57,23.5a7.36,7.36,0,0,1-3.13,2.78c-2.87,1.09-6-.87-8.16-2.79-10.06-9-16.93-20.45-19.55-32.54-1.16-5.36-1.5-10.82-2.12-16.24-4-34.7-27.82-74.38-21.21-109.16C185.15,255.18,188,260.86,190.95,265.47Z"/><path class="cls-5" d="M196.67,462.67c3.09,4.53,6.36,9.06,10.68,12.44s9.72,5.56,14.94,7.62a335.69,335.69,0,0,1-60.11-.21,6,6,0,0,1-3.15-.9,5.36,5.36,0,0,1-1.53-2.26c-5-11.64.37-24.88,5.66-36.38,3.75-8.17,6.92-18,12.09-25.22C181,433.89,186.95,448.26,196.67,462.67Z"/><path class="cls-6" d="M263.62,261c3.76,1.35,7.9.37,11.79-.48a171.3,171.3,0,0,1,30.81-3.85,7,7,0,0,1,4,.69,6.51,6.51,0,0,1,2.17,2.88,35.73,35.73,0,0,1,2.23,24c-1.5,5.74-4.34,12.22-1.06,17.17,3.75,5.66,13.08,4.25,17.65-.77s5.91-12.08,7.81-18.61,4.69-13.3,4.37-20.23c-.24-5.07-2.12-9.92-4.44-14.43-4.62-9-11.3-17.08-20.09-22-18.48-10.33-43.32-3.77-57.73,11.74C255.6,243.09,253.75,257.42,263.62,261Z"/><path class="cls-7" d="M297.63,258.64c-5.14.17-10.39.37-15.17,2.26s-9.08,5.84-9.93,10.91c3.53,4.22,7.11,8.48,11.54,11.74s9.87,5.47,15.35,5c10.2-.86,18-12.41,15-22.2a4.9,4.9,0,0,0-1-1.94A5.73,5.73,0,0,0,311,263.1l-14.12-4.74"/><path class="cls-2" d="M176,405.69c.81,9.33,1.91,19,6.64,27,3.74,6.39,9.49,11.32,15.13,16.13l26.86,22.89c3.61,3.07,9.44,6,12.46,2.39,1.5-1.82,1.35-4.46,1-6.78-4.84-29.7-31.9-51.06-41.05-79.73-6-18.72-2-45.09-14.54-61.09C169.29,346.3,174,383.23,176,405.69Z"/><path class="cls-8" d="M330,206.12c-1.24.73-2.59,1.6-3,3-.44,1.64.64,3.26,1.66,4.61a9.81,9.81,0,0,0,2.81,2.83,12.38,12.38,0,0,0,8.64.09,5,5,0,0,0,2.54-5.25c-.43-2.18-2.25-3.78-4.09-5C335.09,204,333.41,204.09,330,206.12Z"/><path class="cls-9" d="M250,205.52a3.3,3.3,0,0,0-.79,2,3.48,3.48,0,0,0,1.61,2.28c2.32,1.82,5,3.39,7.92,3.62s6.16-1.21,7.25-4a8,8,0,0,0,.48-2.87,8.86,8.86,0,0,0-1-4.52C261.44,195.17,253.14,201.05,250,205.52Z"/><path class="cls-10" d="M250,208.22a3.3,3.3,0,0,0-.79,2,3.48,3.48,0,0,0,1.61,2.28c2.32,1.82,5,3.39,7.92,3.62s6.16-1.21,7.25-4a8,8,0,0,0,.48-2.87,8.86,8.86,0,0,0-1-4.52C261.44,197.87,253.14,203.76,250,208.22Z"/><ellipse class="cls-7" cx="258.63" cy="206.75" rx="5.37" ry="5.25"/><circle class="cls-7" cx="334.81" cy="210.09" r="3.75"/><ellipse class="cls-11" cx="255.77" cy="204.75" rx="2.51" ry="1.79"/><ellipse class="cls-11" cx="334.74" cy="207.38" rx="2.51" ry="1.79"/><path class="cls-2" d="M262.34,305.49c-1.52.57-3.36,1.84-2.77,3.36a3.14,3.14,0,0,0,1.1,1.24l11.6,9.07c3.19,2.49,6.43,5,10.2,6.49,8.16,3.2,17.6.92,25.12-3.57,5.27-3.15,10.22-7.91,10.93-14,1.09-9.34-14.07-11.93-21-11.09A152.76,152.76,0,0,0,262.34,305.49Z"/><path class="cls-6" d="M247.42,189.94c2.13-1.06,4.29-2.3,5.58-4.3,4.64-7.16-5-17-1.44-24.76,2.06-4.51,8-6.13,12.79-4.89s8.73,4.59,12.47,7.84c5.3,4.61,11.09,10.45,10.18,17.41a32.74,32.74,0,0,0-23.94-9.3c1.75,6.39-1.33,13.33-6.09,17.94s-11,7.38-17,10.05l-23.68,10.42c-12,5.27-25.53,12.47-27.71,25.37-2.05,12.14,7.26,23.78,6.33,36.06a20.45,20.45,0,0,0-12.51-19.2c-2.93-1.17-6.52-1.54-9,.36-5,3.75-1.56,11.58,2.14,16.58.22-10.54-6.66-20.73-4.5-31,1.89-9,9-17.87,12.64-26.4,2.59-6.08,4-11,10.64-13.57,7.2-2.82,16.74-.11,24.27-.68A77.83,77.83,0,0,0,247.42,189.94Z"/><path class="cls-6" d="M375.14,267A55.21,55.21,0,0,1,371,289.71c-2.47,5.66-6.17,10.8-9.84,15.89l-36.25,50.31c8.24-.39,16.38,1.52,24.61,2s17.26-.7,23-6.07c7-6.53,6.79-16.71,9.56-25.44,3.53-11.13,12.44-21.5,10.55-32.94-.63-3.8-2.45-7.45-2.41-11.29.06-5.48,3.88-10.3,5.41-15.6,2.49-8.65-1.27-17.69-5.33-25.85A142.44,142.44,0,0,0,376,217c-9.48-12.32-22.05-22.36-34.5-32.28-4.82-3.84-34.59-25.58-39.77-13.33-3.92,9.27,24.3,18.77,29.82,22.19C357.85,209.89,374.88,238.11,375.14,267Z"/><path class="cls-2" d="M376.43,379.1l.79,91.61c0,3.88.15,8.15,1.67,11,2.09,3.87,6,2.78,8.11-1.07s2.75-9.5,2.88-14.85c.33-13.38-2-26.5-2.64-39.85s.3-26.95.55-40.44c.12-6.41.16-48.38-3.72-47-3.37,1.22-3,13.21-3.7,17.15C378.74,364.42,376.34,369.22,376.43,379.1Z"/><path class="cls-6" d="M247.26,425.55c14.1,17.81,35.94,28.31,57.77,27.78,6.71-.16,13.87-1.55,18.69-6.54,6.31-6.53,6.76-17,6.8-26.4l.11-28.22c0-8.18.12-16.65,3.31-24.08,6.86-16,25-21.69,41.09-25.62,1.41,14,.58,28.12-.26,42.16l-5.28,89.13a25.12,25.12,0,0,1-1.4,8.16c-3.51,8.46-14.16,9.52-22.81,9.23q-44.34-1.46-88.54-5.79c-6.19-.61-13.22-1.77-16.66-7.31-1.57-2.53-2.11-5.62-2.62-8.61-2.2-13-8.75-31.14-8-44.09C230.31,411.64,241.43,417.24,247.26,425.55Z"/><path class="cls-12" d="M193.17,173.69c-2.29-11.36-4.58-22.81-4.55-34.39,0-9.58,1.64-19.07,3.25-28.51l7.65-44.87c.83-4.85,1.95-10.19,5.91-13.09s9.55-2.32,13.78.05,7.38,6.26,10.38,10.07Q251.28,90.45,271,119.44"/><path class="cls-12" d="M325.68,121.14c8.85-4.9,13.83-14.47,19-23.17a199.66,199.66,0,0,1,26.81-35.42c3-3.12,6.27-6.29,10.48-7.22,6.41-1.42,13,3,16.12,8.78s3.66,12.55,4,19.11q1.38,25,1.28,50c-.07,17.4-1,35.86-10.74,50.29"/><path class="cls-12" d="M191.12,187.44c3.28,25.43-22.75,48.57-17.4,73.64,1.27,5.93,4.23,11.34,6.1,17.11,2.4,7.45,2.92,15.35,4,23.1A152.87,152.87,0,0,0,197.41,346"/><path class="cls-12" d="M376,358c5-5.49,10.39-11.95,9.65-19.35-.31-3.06-1.67-5.94-2.05-9-.94-7.55,4.15-14.43,9.26-20.07a7.4,7.4,0,0,0,2-3.23c.32-1.53-.36-3.06-.79-4.56-2.06-7.09,1.34-14.46,3.65-21.47,2.85-8.64.25-12.39-1.76-20.15-2.05-7.95-.52-15.89-.49-24a438.2,438.2,0,0,0-3.06-53.32"/><path class="cls-12" d="M181.86,313.76c-6.55,19.56-13.19,39.91-10.76,60.4.89,7.55,3,14.94,3.44,22.53,1.07,18.71-8.06,36.31-16.93,52.82-6.6,12.28-13.38,24.8-23.61,34.27"/><path class="cls-12" d="M391.81,316.39a990,990,0,0,1,9.57,167.35"/><path class="cls-12" d="M358.07,113.12a105.92,105.92,0,0,1,11.4-17.65c1.86-2.34,4.26-4.8,7.25-4.65,3.27.16,5.5,3.36,6.79,6.38,5.81,13.6,3.39,29.14.86,43.71L380.17,165"/><path class="cls-12" d="M242.81,115.37c.79-7.79-1.8-15.48-4.37-22.88-1.74-5-3.79-10.46-8.33-13.23-6.79-4.14-16.2,0-20.4,6.75s-4.49,15.16-4.37,23.11c.27,17.13,1.94,34.2,3.61,51.26"/><path class="cls-12" d="M202.3,198.44c8.7-2.49,19.74,5.48,26.21-.84,1.37-1.34,2.23-3.15,3.71-4.35,1.91-1.56,4.52-1.86,7-2.24a70.73,70.73,0,0,0,17.94-5.25c1.56-.69,3.23-1.57,3.89-3.15,1.74-4.13-4.22-6.87-7.3-10.12-5.44-5.77-.57-16.4,7.09-18.46s15.74,2.12,21.33,7.74,9.57,12.66,15,18.48a18.91,18.91,0,0,1,34.59-5c1.47,2.48,2.41,5.34,4.46,7.38,3.32,3.31,8.56,3.56,12.67,5.8,7.21,3.92,9.85,13.17,16.39,18.14,2.56,1.94,5.6,3.14,8.38,4.76a30.88,30.88,0,0,1,14.83,28.23"/><path class="cls-12" d="M275.61,266.89a10.36,10.36,0,0,0-2.61,4.36c-1,4.23,2.62,8,5.94,10.85,5.61,4.77,12.12,9.69,19.47,9.16,5.33-.38,10.16-3.76,13.11-8.22a29.14,29.14,0,0,0,4.33-15.21,6.39,6.39,0,0,0-.81-4,6.88,6.88,0,0,0-3-2C297.55,255.45,287.36,253.46,275.61,266.89Z"/><path class="cls-12" d="M239.41,272a58.74,58.74,0,0,0,9.66,19.87"/><path class="cls-12" d="M329.75,306.16l9.35-16.52c2.55-4.51,5.13-9.07,6.47-14.08s1.32-10.57-1.17-15.12"/><path class="cls-12" d="M299.15,227.11c7.41,1.53,14.89,3.09,21.72,6.33s13,8.41,16,15.36"/><path class="cls-12" d="M315.48,308.29c-4.73-5.18-12.54-6-19.55-5.62a86.79,86.79,0,0,0-29.09,6.73"/><path class="cls-12" d="M330.13,200.61a51.68,51.68,0,0,1,21.5,6.77"/><path class="cls-12" d="M262.54,198.07a164,164,0,0,0-23.47,4.37c3.08,1.91,11.75,8.32,14.83,10.23s6.16,3.77,9.68,3.94,7.43-2.07,7.79-5.58S265.16,200.26,262.54,198.07Z"/><path class="cls-12" d="M327.27,205.58c-2.5,2.66-5,7.11-2.2,9.48a5.88,5.88,0,0,0,2,1c7,2.29,16.08-.13,18.54-7"/><path class="cls-12" d="M184.14,258.57c6.86,24.7,29.9,41.8,39.25,65.67l-6.19,3.89a46.33,46.33,0,0,0,20.3,44.69c2.36,1.52,5.13,3.21,5.48,6,.3,2.4-1.39,4.55-3,6.38l-11.51,13.27"/><path class="cls-9" d="M271.83,120.26c17.41-.89,35.09-1.75,52,2.29"/><path class="cls-9" d="M330,204.32c-1.24.73-2.59,1.6-3,3-.44,1.64.64,3.26,1.66,4.61a9.81,9.81,0,0,0,2.81,2.83,12.38,12.38,0,0,0,8.64.09,5,5,0,0,0,2.54-5.25c-.43-2.18-2.25-3.78-4.09-5C335.09,202.22,333.41,202.28,330,204.32Z"/><path class="cls-12" d="M281.4,315c4.34.62,8.6,1.81,13,2.11s9-.4,12.46-3.13"/><path class="cls-12" d="M241.37,401c5.9,18.8,21.42,33.16,38.36,43.24,10,6,22.27,10.84,33.09,6.5,7.25-2.91,12.51-9.66,14.92-17.08s2.24-15.48,1-23.18c-.69-4.2-1.7-8.36-1.95-12.6a44.22,44.22,0,0,1,3.42-18.78c3.36-8.42,8.8-16.16,16.23-21.35"/><path class="cls-12" d="M176,417.2a134.12,134.12,0,0,0,45,55.36c2.3,1.64,4.82,3.25,7.64,3.38,3.86.17,7.42-2.65,9-6.17s1.54-7.59.84-11.39c-3.64-20-22.26-33-34.44-49.27a85.71,85.71,0,0,1-15.43-66.63"/></g></svg>