<svg xmlns="http://www.w3.org/2000/svg" viewBox="0 0 537.4 542.4"><defs><style>.cls-1{fill:#ffcb6a;}.cls-2{fill:#424243;}.cls-3{fill:#2a2b2a;}.cls-4{fill:#141415;}.cls-5{fill:#64492c;}.cls-6{fill:#0c0d0d;}.cls-7{fill:#595b5c;}.cls-8{fill:#2c2d2d;}.cls-9{fill:#595a5a;}.cls-10{fill:none;stroke:#0c0d0d;stroke-miterlimit:10;stroke-width:1.13px;}</style></defs><title>lab</title><g id="Layer_1" data-name="Layer 1"><rect class="cls-1" x="-19.01" y="-8.7" width="571.56" height="576.88"/></g><g id="Layer_2" data-name="Layer 2"><path class="cls-2" d="M163.67,261.6c9.44,19.76,9.47,44.27,20.74,62.8,7.78,12.78,20.24,21.31,33.43,25.93s27.15,5.65,41,5.91c14.4.27,29.6-.51,41.78-9.09,23.77-16.75,27.33-56.39,50.57-74,1.69-1.28,3.86-2.46,5.69-1.44s2.26,3.41,2.84,5.49c3.76,13.36,16.78,20.3,24.18,31.6,5.74,8.76,7.89,19.88,13.18,29s13.6,15.85,21.31,22.72a288.57,288.57,0,0,1,60.8,77c-28.68,9.15-58.53,12.6-88.2,16-51.36,5.9-102.87,11.8-154.49,10.64-16.95-.38-33.95-1.53-50.55-5.34-13.69-3.14-27.72-8.56-37-20.27-13-16.46-13.27-41.9-5.71-62.18,4.53-12.16,11.58-23.47,13-36.54,2.56-23.71-13-43.45-18.89-65C130.6,250.38,152.27,237.72,163.67,261.6Z"/><path class="cls-3" d="M320.63,254.63l-15.5,43.07c-1.06,2.94-2.14,6.18-1.48,9.3a7.66,7.66,0,0,0,8.4,6.08c3.5-.47,6.59-3,9.53-5.4,4.07-3.36,8.26-6.86,11-11.94,2.62-4.87,3.68-10.77,4.69-16.52,1.42-8.09,2.85-16.29,2.63-24.58-.13-5-1.91-21.56-7.55-21.88C327.28,232.49,322.3,250,320.63,254.63Z"/><path class="cls-2" d="M170.67,99.74c-6,4.92-10.12,11.66-13.55,18.56a132.4,132.4,0,0,0-12.89,43.47c-3.23,27.79,2.44,55.74,8.09,83.15,1.15,5.57,2.32,11.21,4.83,16.33,3.72,7.58,10.12,13.5,14.89,20.49,7.37,10.81,10.61,23.78,13.49,36.5,2.56,11.3,6.52,24.46,17.61,28.21,7.14,2.41,15.06-.12,21.59-3.85s12.35-8.68,19.23-11.74c7.28,7.1,14.9,14.2,24.27,18.25s21,4.54,29.33-1.25a31.44,31.44,0,0,0,9.21-10.74,38.18,38.18,0,0,0,4.78-13.75c1.17-9.28-2-18.56-2.05-27.91-.17-24.22,19.53-43.39,30.71-64.95A97.84,97.84,0,0,0,315.9,110.3c-5-4.22-10.6-8.06-14.2-13.53-2.34-3.55-3.92-7.84-7.48-10.21-2.84-1.89-6.43-2.19-9.85-2.41-21-1.34-43.17-3.24-64.13-1C204,84.82,183.39,89.28,170.67,99.74Z"/><path class="cls-3" d="M168,94.32c-17.32-6.73-36.25,3.16-52.18,12.73L78.32,129.58c-7.75,4.66-15.75,9.54-20.82,17-7.61,11.23-7.09,26.22-3.28,39.24a89.48,89.48,0,0,0,12.39,25.89c12.08,17.35,30.16,30.24,40.28,48.8,2.81,5.16,5.45,11.17,10.91,13.37,5.23,2.11,11.45-.3,15.27-4.45s5.71-9.69,7.15-15.15c5.46-20.68,5.9-42.45,3.37-63.68-1.66-13.95-4.54-28.32-.65-41.81C148.64,129,166.68,115.61,168,94.32Z"/><path class="cls-4" d="M240.29,271.54c-6.79.17-14.12.52-19.42,4.77-4.43,3.55-6.57,9.15-8.51,14.48-.77,2.12-1.56,4.33-1.29,6.57.41,3.43,3.14,6,5.71,8.35,9.35,8.38,20.11,17.19,32.66,16.69,5.28-.21,10.36-2.11,15.07-4.51,6.47-3.3,12.56-7.72,16.58-13.77s5.73-13.91,3.29-20.75C278.29,266.34,253.92,271.21,240.29,271.54Z"/><path class="cls-5" d="M197.44,177c0,3.44-8.34,6.41-13.5,5.72-3.45-.46-6.63-4.92-6.63-8.37S190.18,168,193.66,168,197.44,173.54,197.44,177Z"/><ellipse class="cls-6" cx="187.62" cy="171.13" rx="6.41" ry="5.34"/><path class="cls-7" d="M175.47,174.75q2,3.42,3.82,6.9a.61.61,0,0,1,.11.37c-.05.32-.53.37-.86.27a5.52,5.52,0,0,1-2-1.26c-.88-.75-1.75-1.5-2.61-2.27-.66-.59-2-1.41-2.2-2.27C171.31,175,174.74,173.49,175.47,174.75Z"/><path class="cls-3" d="M168.62,166.73a7,7,0,0,1,1.05-2.38,10.2,10.2,0,0,1,3.22-3.09,12.34,12.34,0,0,1,6.83-1.62,20.92,20.92,0,0,1,6.9,1.61,25.76,25.76,0,0,1,5.74,3.12,9,9,0,0,1,3.11,3.53c-1.89.4-3.83-.23-5.71-.71s-4-.77-5.65.21c-.48.28-.91.66-1.36,1-1.91,1.38-4.31,1.84-6.59,2.42a18.61,18.61,0,0,0-3.1,1c-.73.33-1.85,1.45-2.66,1.17C168.69,172.43,168.32,168.13,168.62,166.73Z"/><path class="cls-3" d="M335.3,91.72c11.63,4.3,22,11.33,32.27,18.3l20.87,14.18c7.81,5.3,15.7,10.68,22,17.69s11,15.94,11.09,25.38c.1,10.57-5.48,20.41-12.24,28.53s-14.83,15.12-21.2,23.56a75.3,75.3,0,0,0-14.88,39.79c-.47,6.75-.55,14.64-6,18.67-6.71,5-16.79-.3-20.53-7.76s-3.42-16.2-4.76-24.44c-.7-4.29-1.87-8.52-2-12.86-.54-13.79,8.85-25.91,11.83-39.39,4.31-19.49-5.24-39.44-17.25-55.39-11.35-15.07-28.14-29.23-35.14-47C308.82,84.53,325.29,88,335.3,91.72Z"/><path class="cls-3" d="M205.73,141.93a14.3,14.3,0,0,1-.64-5.39c2.29-.26,4.53.68,6.63,1.64,4.34,2,8.8,4.27,11.52,8.19,2.38,3.42,3.14,7.71,3.42,11.86a62.7,62.7,0,0,1-1.59,18.91c-.34,1.41-1.14,3.13-2.59,3-1.14-.07-1.83-1.25-2.34-2.28a97.73,97.73,0,0,0-10.93-17.12C204.9,155.24,207.29,148.76,205.73,141.93Z"/><path class="cls-3" d="M256.8,247.07c3.08,3.7,5.3,8,8.26,11.83a76.27,76.27,0,0,0,9,9.23l9.86,9a3.94,3.94,0,0,0,2,1.18c2.14.31,3.08-2.6,3.19-4.77.34-7,.68-14.09-.34-21s-3.52-13.86-8.22-19.08c-4.2-4.66-9.87-7.71-15.49-10.49q-7.58-3.76-15.34-7.12c-1.43-.62-3.27-1.16-4.39-.08a3.66,3.66,0,0,0-.88,2.07C242.35,229.77,249.81,238.66,256.8,247.07Z"/><path class="cls-8" d="M225,289.48a4.72,4.72,0,0,0-5.59,3.58,9.81,9.81,0,0,0,3.14,9.52,14.82,14.82,0,0,0,9.72,3.47c1.49,0,3.17-.22,4.09-1.4a4.78,4.78,0,0,0,.49-3.88C235.64,294.71,231.28,290.05,225,289.48Z"/><path class="cls-8" d="M252.33,302.37c-.54,1.25-.9,2.81-.06,3.87a3.59,3.59,0,0,0,1.61,1,12.05,12.05,0,0,0,14.48-5.64c2.09-4.12,1.34-10.56-4.23-9.76C259.07,292.59,254.23,298,252.33,302.37Z"/><path class="cls-9" d="M222,241c-4.37,8-7.87,16.53-11.35,25a27.53,27.53,0,0,0-2.19,7.19c2,2.15,5.37,1.7,7.62-.08s3.68-4.52,5.23-7.06,3.46-5.06,6.11-5.93,5.21,0,7.81.48,5.58.5,7.49-1.52c2.11-2.25,2-6.11.9-9.13s-2.91-5.68-3.84-8.76c-1.3-4.34-.22-15.23-6.14-14.72C229.3,226.9,224,237.41,222,241Z"/><path class="cls-5" d="M313.58,181c-1.22,3.22-10.07,3-14.65.56-3.07-1.66-4.45-7-3.23-10.17s14.29-1.4,17.55-.17S314.8,177.81,313.58,181Z"/><ellipse class="cls-6" cx="303.46" cy="171.13" rx="6.41" ry="5.34"/><path class="cls-3" d="M298.75,167.05a12.46,12.46,0,0,1,4.62-1.48,5.52,5.52,0,0,1,2.54.46,16,16,0,0,1,1.65,1,25.7,25.7,0,0,0,6.77,2.54c1.63.44,3.64.78,4.77-.47a3.07,3.07,0,0,0,.22-3.4,7.44,7.44,0,0,0-2.55-2.54,28.44,28.44,0,0,0-8.24-3.85c-4.63-1.31-10.08-1.26-13.71,1.89a5.9,5.9,0,0,0-1.51,1.88c-.59,1.25-1.26,4.68.24,5.59S297.47,167.65,298.75,167.05Z"/><path class="cls-7" d="M315.46,170.78a65.79,65.79,0,0,1-1.28,8.76,12.56,12.56,0,0,0,9.63-2.38"/><path class="cls-9" d="M144.56,108.88a5.38,5.38,0,0,1,3.9,1c2.58,2.4-.71,6.33-3.35,8.67-6.93,6.12-10.57,15.3-11.76,24.47s-.16,18.47.86,27.66l4.56,40.87c.71,6.33.35,14.5-5.61,16.74-4.45,1.66-9.52-1.57-11.58-5.85s-1.88-9.25-1.67-14L123,141.24C123.81,122.9,122.34,109.69,144.56,108.88Z"/><path class="cls-9" d="M395.27,173.5a8.43,8.43,0,0,0,1.39,2.73c1.52,1.73,4.17,1.89,6.43,1.44a16.6,16.6,0,0,0,9.1-27.38,33.27,33.27,0,0,0-7.46-5.66c-5.63-3.49-28.25-21.19-26.66-7,.58,5.23,7.46,13.3,9.81,18.26Q392,164.54,395.27,173.5Z"/><path class="cls-9" d="M228.54,108.72c11.93,1.52,24.05,4.88,33.26,12.61s14.83,20.62,11.29,32.11c-1.51,4.92-4.6,9.48-4.63,14.63,2.8,3.25,8.35,1.68,11.33-1.4s4.71-7.27,8-10.08c5.49-4.76,13.66-4.32,20.85-3.21,3.65.56,8.66.36,9.43-3.25.59-2.76-2-5-4.3-6.71a136.14,136.14,0,0,1-28.8-28.72c-3.22-4.36-6.22-9-10.28-12.55-11.35-10.06-28.15-10.2-43.29-9.34-3.31.19-6.82.46-9.52,2.39C213.62,101.05,222.26,107.92,228.54,108.72Z"/><path class="cls-9" d="M162.74,330.91c2.45,11.71,14.8,18,25.11,24a136.37,136.37,0,0,1,18,12.63c2.62,2.18,5.36,4.87,5.41,8.27a12.82,12.82,0,0,1-1.8,5.69,214.36,214.36,0,0,0-18.56,55.89,221.55,221.55,0,0,0-23.51-24.35c-2.71-2.4-11-7-11.93-10.3-1.06-3.67,3.73-9.14,5.26-12.52C170,369.75,167.13,351.88,162.74,330.91Z"/><path class="cls-4" d="M245.48,330.87c4.91,9.53,12.5,17.11,21.28,21.26-2.5-1.18-14.32,4.57-18.19,4.53-6.37-.06-13.53-1.53-18.94-5.61C232.1,342.42,244.4,343.78,245.48,330.87Z"/><path class="cls-10" d="M82.43,126.06c-8.8,5.56-17.69,11.19-24.95,18.65a66.28,66.28,0,0,0-12.35,17.79c-1.29,2.72-2.41,5.78-1.63,8.68a12.21,12.21,0,0,0,2.86,4.7c6.29,7.18,14.93,12.17,20.45,20,3.31,4.67,5.31,10.1,7.45,15.41A274.67,274.67,0,0,0,109.09,273c2.11,2.82,4.4,5.7,7.59,7.19,4.52,2.12,10.1.92,14.14-2s6.75-7.36,8.77-11.93a59.28,59.28,0,0,0,5-21.29c.37-8.27-1-16.51-2-24.72a294.84,294.84,0,0,1-.93-63.64c.89-9.48,2.33-19.19,7.07-27.46,3.86-6.73,9.69-12.1,14.39-18.28,3.6-4.73,11.66-18.14,4.55-21.64-6-3-24,4.94-30,7.14C118,103.66,100.09,114.91,82.43,126.06Z"/><path class="cls-10" d="M354.88,99.34A195.72,195.72,0,0,0,384,120.73c14.14,8.63,30.4,17.28,35.65,33,4.18,12.53-.07,26.51-7.17,37.64s-16.87,20.29-25.21,30.53-15.49,22.34-15.8,35.55c-.12,5.29.86,10.66-.24,15.83s-5.21,10.33-10.49,10.16c-6.83-.22-10.18-8.3-11.59-15-3.9-18.45-5.79-37.52-3.24-56.2,1.49-10.91,4.49-21.69,4.28-32.7-.2-10.1-3.1-19.93-6-29.61-4-13.51-8.52-27.8-19.22-37-10.06-8.63-25.62-13.11-28.87-26C317.5,85,338.35,84.46,354.88,99.34Z"/><path class="cls-10" d="M168.07,90.21c9.39,2.1,18.16-4.64,27.1-8.21,10.5-4.18,22.15-4,33.45-3.82l50.41,1c8.4.16,17.35.49,24.25,5.28"/><path class="cls-10" d="M153.22,253a182,182,0,0,1,23.47,48.61c3.25,10.47,5.6,21.37,10.9,31s14.36,18,25.28,19c14.19,1.29,26.57-10,33.7-22.32-1.16,6.64,5,12.13,10.66,15.74a154.59,154.59,0,0,0,22.58,11.82c3.69,1.56,7.59,3,11.59,2.71,5.74-.41,10.75-4.4,13.79-9.27s4.44-10.59,5.64-16.21c2.08-9.73,3.65-20.31-.66-29.29-3-6.28-8.63-11.09-11.26-17.54-5.09-12.46,1.26-29.68-9.09-38.29"/><path class="cls-10" d="M223,350.49c15,5.21,32,8.84,46.4,2.09"/><path class="cls-10" d="M233.8,270.06c-5.66-.08-11.56,1.45-15.66,5.34a24.34,24.34,0,0,0-5.7,9.3c-1.25,3.33-2.11,7-1.22,10.44s3.37,6.21,5.82,8.79c7.42,7.81,15.94,15.6,26.57,17.33,11.54,1.88,23.22-4,31.43-12.33,7.07-7.18,12.33-17.94,8.38-27.21C281,276,275.34,272,269.3,270.48c-6.44-1.65-11.6,0-17.83.77S240,270.15,233.8,270.06Z"/><path class="cls-10" d="M207.25,162.17l9.16,16.88c1.53,2.82,3.09,5.72,3.56,8.89,1.18,7.92-4.49,15.06-9.79,21.05"/><path class="cls-10" d="M361.45,112.5a177.46,177.46,0,0,0,22.83,50.77,29.78,29.78,0,0,1,4,7.37c2.6,8.46-3.25,17-8.76,23.91"/><path class="cls-10" d="M120.53,112.82c1.5,4.6,1,9.59.35,14.39a343.43,343.43,0,0,1-13.24,59.31"/><path class="cls-10" d="M137.73,281.27c3.33,6.48,4.8,13.74,6.24,20.89l6.12,30.56c1.22,6.07,2.44,12.25,1.91,18.42-1,11.83-8.26,22.05-12.85,33a77.18,77.18,0,0,0-1.52,55.1"/><path class="cls-10" d="M367.49,287.54c-.41,10,7.62,18.27,15.75,24.14s17.4,11.24,21.72,20.28c3.06,6.41,3.29,14.11,7.48,19.85,2,2.75,4.78,4.83,7.47,6.91a287.13,287.13,0,0,1,70.55,79.59"/><path class="cls-10" d="M314.2,296.56c1.38-10.08-2.16-20.85,1.72-30.25a40.89,40.89,0,0,1,4.81-8l14.37-20.14"/><path class="cls-10" d="M347.45,278.52a249.68,249.68,0,0,1-25.16,37.28"/><path class="cls-10" d="M293.29,172.32c.22-1.11,1.33-1.78,2.36-2.23a25.25,25.25,0,0,1,29.21,7.29"/><path class="cls-10" d="M171,173.75c7.08-5.63,15.37-6.2,24.42-6.24"/><path class="cls-10" d="M295.17,170.35c-2,3.25.09,7.76,3.4,9.63s7.35,1.77,11.12,1.34a4.6,4.6,0,0,0,2.35-.73,4.31,4.31,0,0,0,1.2-1.83,24.47,24.47,0,0,0,1.84-8"/><path class="cls-10" d="M171,173.75c.2,4.89,5.53,7.88,10.33,8.87s10.39.83,14.16-2.4,4.24-10.24-.06-12.71"/><path class="cls-10" d="M172.69,146.69q8-1.68,15.72-4.12a9.49,9.49,0,0,0,4.31-2.26c1.82-2,1.69-5,2.09-7.63,1.39-9.18,9.74-15.43,17.41-20.66"/><path class="cls-10" d="M230.81,154.32c1.55-1.52-.2-4-.31-6.21-.2-4.14,5.26-5.68,8.24-8.56,3.24-3.12,3.52-8.39,1.89-12.57s-4.83-7.54-7.94-10.78"/><path class="cls-10" d="M176.1,172.61c.07.36.14.72.21,1.08a22.51,22.51,0,0,0,1.58,4.75,9.76,9.76,0,0,0,.86,1.55c.62.88,4.21,2.26,5.18,2.71"/><path class="cls-10" d="M180.56,170.83q.86,1.63,1.83,3.21a5.4,5.4,0,0,0,1,1.34,5.09,5.09,0,0,0,1.17.69,8.57,8.57,0,0,0,3.06.91,6,6,0,0,0,5.28-2.91,8.21,8.21,0,0,0,.86-6.11"/><path class="cls-10" d="M170.18,173.45a6.06,6.06,0,0,1-2.31-5.93,10.79,10.79,0,0,1,3.22-5.76,11,11,0,0,1,4.28-2.83,13,13,0,0,1,3.26-.53c5.17-.31,10.61.54,14.79,3.59,1.72,1.25,3.28,3.09,3.22,5.22"/><path class="cls-10" d="M255.17,298.93a11.71,11.71,0,0,0-3.35,4.69,1.68,1.68,0,0,0,0,1.27,1.72,1.72,0,0,0,.62.59c3.88,2.51,9.13,1.49,13.16-.77a9.63,9.63,0,0,0,3.9-3.5,9.93,9.93,0,0,0,.9-5.26,5.42,5.42,0,0,0-.31-1.81C267.15,286.92,257.74,296.46,255.17,298.93Z"/><path class="cls-10" d="M217.57,295.35a3.71,3.71,0,0,0-.28,2,4.29,4.29,0,0,0,2,2.38c4,2.86,8.52,5.61,13.45,5.47a4.65,4.65,0,0,0,3.11-1c1.52-1.43,1-4,.11-5.83C232.67,291.43,221.37,284.8,217.57,295.35Z"/><path class="cls-10" d="M296.72,171.11q.86,1.63,1.83,3.21a5.4,5.4,0,0,0,1,1.34,5.09,5.09,0,0,0,1.17.69,8.57,8.57,0,0,0,3.06.91,6,6,0,0,0,5.28-2.91,8.21,8.21,0,0,0,.86-6.11"/><path class="cls-10" d="M294.49,172a6.06,6.06,0,0,1-2.31-5.93,10.79,10.79,0,0,1,3.22-5.76,11,11,0,0,1,4.28-2.83,13,13,0,0,1,3.26-.53c5.17-.31,12.83,4.84,17,7.89,1.72,1.25.05,5.82,0,7.95"/><path class="cls-10" d="M312.75,181.31A22.84,22.84,0,0,0,323,177.92"/><path class="cls-10" d="M160.63,321.59c2.45,11.71,14.8,18,25.11,24a136.37,136.37,0,0,1,18,12.63c2.62,2.18,5.36,4.87,5.41,8.27a12.82,12.82,0,0,1-1.8,5.69,214.36,214.36,0,0,0-18.56,55.89,221.55,221.55,0,0,0-23.51-24.35c-2.71-2.4-11-7-11.93-10.3-1.06-3.67,3.73-9.14,5.26-12.52C167.86,360.43,165,342.55,160.63,321.59Z"/></g></svg>