<svg xmlns="http://www.w3.org/2000/svg" viewBox="0 0 537.4 542.4"><defs><style>.cls-1{fill:#a3c9ff;}.cls-2{fill:#969494;}.cls-3{fill:#2a2b2a;}.cls-4{fill:#e7c5d5;}.cls-5{fill:#e7c095;}.cls-6{fill:#989795;}.cls-7{fill:#4c4842;}.cls-8{fill:#281a0e;}.cls-9{fill:#353535;}.cls-10{fill:#0b0b0b;}.cls-11{fill:#e1acc6;}.cls-12{fill:#4c453c;}.cls-13{fill:#161616;}.cls-14{fill:#888585;}.cls-15{fill:#6b6c6a;}.cls-16{fill:#d5b28f;}.cls-17{fill:#c09f83;}.cls-18{fill:#c6a280;}.cls-19{fill:none;stroke:#070707;stroke-miterlimit:10;stroke-width:1.02px;}</style></defs><title>pug</title><g id="Layer_1" data-name="Layer 1"><rect class="cls-1" x="-14.4" y="-9.8" width="558.98" height="564.18"/></g><g id="Layer_2" data-name="Layer 2"><path class="cls-2" d="M313.24,181.79c-2.61.23-5.84,1.18-6.17,3.77s2.66,4.33,5.07,5.49a40.11,40.11,0,0,1,15.21,12.88c3.48,4.92,6,10.75,10.67,14.5,7.88,6.27,20.85,4.07,26.66-4.16a15.32,15.32,0,0,0,2.74-12.13,20,20,0,0,0-3.9-7.35C352.17,180,330.32,180.25,313.24,181.79Z"/><path class="cls-3" d="M148.8,296.43c-5.27,6.17-10.89,14.06-8.49,22,1.57,5.17,6.14,8.55,9.33,12.81s5,9.32,8.78,12.82c4.78,4.45,11.9,5.35,18.06,3.6s11.51-5.81,16.21-10.36c14.65-14.2,24.4-33.77,40.73-45.78,8.07-5.93,17.78-10.07,23.44-18.55,6.17-9.23,6-22.13,1.07-32.16S244,223.44,234.18,219c-17.42-7.87-31.22,16.5-41.64,27.91Q170.27,271.27,148.8,296.43Z"/><path class="cls-3" d="M265.3,260.73l45.89,38.9c7.16,6.07,15.08,12.45,24.47,12.82,15.16.6,26.67-15.92,25.87-31.07S351.17,253,340.8,241.92a209.52,209.52,0,0,0-38.49-32.3c-3.9-2.54-8.59-5-13-3.51-2.88,1-4.9,3.53-6.95,5.79-7,7.76-20.64,11.47-24.78,20.83C253.4,242.26,258.09,254.62,265.3,260.73Z"/><path class="cls-4" d="M219,308.22c-8.16,6.26-13.3,15.55-18.83,24.22S188,349.8,178.44,353.58L204.3,363c7.39,2.7,15,5.45,22.89,5,6.37-.37,12.4-2.81,18.31-5.22l40.92-16.72c7-2.88,15-6.79,16.67-14.22,1.21-5.43-1.45-10.87-3.77-15.92-1.78-3.88-3.45-7.9-6.24-11.14-5.74-6.67-15.38-8.87-24.11-7.76-8.45,1.08-15.69,5.76-24.08,6.3C234.84,304,228.12,301.25,219,308.22Z"/><path class="cls-5" d="M123.15,422.71,353,426.56c21.72.36,44,.64,64.43-6.72.35-14.75-5.31-28.9-10.89-42.55l-15.95-39.1c-1.38-3.38-3.26-7.2-6.83-8-5.1-1.09-8.73,4.66-11,9.35a118.42,118.42,0,0,1-161.6,52.75c-16.45-8.67-30.59-21.05-44.88-32.95C136.83,334.86,127.35,404.28,123.15,422.71Z"/><path class="cls-5" d="M142.71,243.49A57.93,57.93,0,0,1,137,210.66c-10.27,15.14-10.71,34.65-10.79,52.95-.07,16.32.2,33.8,9.53,47.2,1.76-9.23,3.55-18.56,7.41-27.13C151.65,264.73,152.17,262.25,142.71,243.49Z"/><path class="cls-6" d="M184.65,216c1.45-4.76,2.4-10.3-.38-14.43a13.26,13.26,0,0,0-5.1-4.2,22.79,22.79,0,0,0-33.1,21.45,30.39,30.39,0,0,0,2.11,9.24C150.8,235,159,248,167.77,243.75S182.06,224.52,184.65,216Z"/><path class="cls-7" d="M224,390.44c26.16,7.8,54.28,15.53,79.69,5,8.88-3.68,17-9.45,25-15.18,11-7.83,22-15.79,30.88-26.57,3.49-4.26,6.71-9.2,7.47-15s-1.65-12.43-6.49-14.3c-6.18-2.39-12.23,3.53-16.8,8.83A210,210,0,0,1,321,356.44c-39.84,33.8-81.57,29.86-126.67,18.25C199.49,384.53,214.74,387.69,224,390.44Z"/><ellipse class="cls-8" cx="166.74" cy="216.16" rx="12.66" ry="16.62"/><ellipse class="cls-8" cx="346.26" cy="202.37" rx="16.72" ry="15.08"/><path class="cls-9" d="M223.36,195.72c-2.31,2.26-4.47,5.12-4.34,8.35.18,4.33,4.23,7.33,7.88,9.67L243,224c3.11,2,6.31,4,9.93,4.76,9.51,1.93,18.18-5.35,25.15-12.1,3-2.95,6.21-6.08,7.45-10.13,4.22-13.7-13.29-24.24-24.85-24.63C248.48,181.51,232,187.3,223.36,195.72Z"/><path class="cls-10" d="M276.87,195.75a10,10,0,0,0-5.23-.42c-1.7.48-3.17,2.29-2.62,4a4.77,4.77,0,0,0,1.81,2.12,51.66,51.66,0,0,0,4.9,3.34,5.81,5.81,0,0,0,2.39,1c2.69.25,4.44-3.26,3.58-5.82s-3.25-4.24-5.5-5.74"/><path class="cls-10" d="M235.08,199.5c-2,.32-4,.69-5.54,2s-2,3.94-.52,5.26a4.8,4.8,0,0,0,2.8.94,23.24,23.24,0,0,0,5.3-.12c2.34-.32,5.11-1.57,5.18-3.94a3.88,3.88,0,0,0-2.43-3.39,11.39,11.39,0,0,0-4.32-.75"/><path class="cls-7" d="M76.75,210.31c-3.15,2.06-6.35,4.15-8.78,7S63.88,224,62.36,227.6l-4.44,10.54c-.74,1.75-1.49,3.63-1.14,5.49.4,2.14,2.14,3.74,3.88,5,3.48,2.6,7.76,4.72,12,3.9,10-1.93,11.8-17.35,21.46-20.47,4.49-1.45,9.31.27,13.9,1.39s10.13,1.36,13.3-2.14c2.49-2.74,2.61-6.81,3.66-10.36,1.18-4,3.63-7.5,6-10.9q15.44-21.76,31.44-43.11c4.64-6.19,9.48-12.79,10.18-20.49.07-.81-8.64,2-9.77,2.6-4,2.24-7.55,5.76-11.19,8.51q-12.2,9.2-24.59,18.12Q102.32,193.57,76.75,210.31Z"/><path class="cls-7" d="M391.88,198.34a7.76,7.76,0,0,0,3.64,2c1.47.21,2.92-.41,4.36-.78,5.69-1.47,11.74.86,16.53,4.26s8.73,7.86,13.36,11.49c3.78,3,10,5,12.82,1.18a8.46,8.46,0,0,0,1.34-3.62,27.7,27.7,0,0,0-11.84-27.37c-4.06-2.65-8.77-4.17-12.89-6.72-4.81-3-8.66-7.24-12.56-11.34-8.93-9.39-18.57-18.27-29.78-24.77-4.55-2.64-43.41-17.41-38.83-4.28,1.17,3.36,6.49,6.58,9,9.08,3.15,3.21,6.12,6.59,9,10,5.56,6.66,10.73,13.64,16.21,20.37C378.17,185.2,384.5,192.34,391.88,198.34Z"/><path class="cls-7" d="M203.27,169.64c-.77-2.24-2-4.67-4.42-5.37a8.66,8.66,0,0,0-4.95.5c-9.79,3.12-18.71,8.24-27.42,13.48-7.09,4.26-14.2,8.71-19.75,14.65s-9.45,13.65-8.94,21.54c.35,5.39,2.69,10.47,5,15.41l11.14,23.93c1,2.18,2.46,4.67,5,4.9,2.71.25,4.69-2.25,6.07-4.45,1.18-1.89,2.4-3.87,2.5-6.06.3-6.31-7.8-9.41-12.54-13.9-5.91-5.61-6.74-14.46-5.18-22.22,1.45-7.23,5.82-15.05,13.52-16.42,5.75-1,11.34,1.9,16.84,3.77s11.53,2.7,16.92.78C209.54,195.76,206.48,179,203.27,169.64Z"/><path class="cls-7" d="M303.66,179.84c.85,1.4,2,2.83,3.55,3.22,2.17.54,4.23-1,6.12-2.19,6.84-4.31,15.61-4.74,23.43-2.67s14.84,6.41,21.37,11.18c3.75,2.73,7.53,5.81,9.37,10.07,2.4,5.59.79,12.47-3.36,16.92s-10.49,6.52-16.57,6.13c-2.86-.19-7.08.32-6.76,3.18a4.53,4.53,0,0,0,1.51,2.46c5.13,5.3,11.79,11.07,18.93,9.22a15.54,15.54,0,0,0,7.24-4.78,29.82,29.82,0,0,0,6.18-29.33c-4.17-12.11-15.55-20-26.25-27l-25.14-16.52c-5.4-3.55-16.23-12.18-21.72-5C296.68,161.17,299.94,173.72,303.66,179.84Z"/><path class="cls-11" d="M227.7,371.31c5.41,1.93,11.46,1.22,16.89-.68S255,365.74,260,363a173,173,0,0,1,23.48-10.5c4.86-1.75,10-3.38,13.78-6.84s6-9.41,3.48-13.92c1.68,3-13,13-15.05,14.08-6.58,3.58-13.11,4.47-20.42,5.14C250.73,352.31,237,360,227.7,371.31Z"/><path class="cls-12" d="M220.8,180.07a23.8,23.8,0,0,0,6.36-5.64c3.75-5.4,2.66-12.79,1.41-19.32-.64-3.37-1.49-7.08-4.22-9-1.84-1.33-4.2-1.57-6.44-1.59-5.64,0-11.23,1.06-16.78,2.16-6.68,1.33-13.41,2.67-19.67,5.44a49,49,0,0,0-24,23.57c4,2.19,8.68-.94,12.33-3.73a128.35,128.35,0,0,1,11.05-7.56c4-2.44,8.26-4.7,12.87-5.22s9.69,1,12.4,4.94a18.87,18.87,0,0,1,2.44,5.92c1.31,4.87,1,11.81,3.16,16C214.91,184.55,217.86,182.11,220.8,180.07Z"/><path class="cls-13" d="M255.12,278.14A46.85,46.85,0,0,1,235,292.76c-1.21.45-2.72,1.47-2.16,2.63l11-.65c1.47-.09,3.08-.14,4.27.72a7,7,0,0,0,1.51,1.1,3.55,3.55,0,0,0,2.72-.58,44.87,44.87,0,0,1,39.6-.27c.62-4.49-2.07-8.89-5.6-11.72s-7.85-4.46-12-6.37C264.44,273,263.08,268.15,255.12,278.14Z"/><path class="cls-5" d="M376.1,236.71c-1.24,2.62-2.67,5.29-2.7,8.19a16.54,16.54,0,0,0,1.38,5.94,118.5,118.5,0,0,0,13.93,26.28,13.72,13.72,0,0,1,2.61,5A13,13,0,0,1,391,287L388.76,299c1.62-.09,2.43-2,2.87-3.54,3.4-12.11,6.74-25.37,1.77-36.92-1.62-3.77-4.07-7.15-5.69-10.92a27.9,27.9,0,0,1-1.54-17.16c1.76-7.64,6.78-14.74,6-22.54-.6-6.2-8.43-18.75-15.17-18.63C382.68,205.55,383.75,220.53,376.1,236.71Z"/><circle class="cls-14" cx="169.6" cy="208.32" r="7.49"/><circle class="cls-15" cx="333.79" cy="197.48" r="7.49"/><path class="cls-12" d="M293.2,174a4,4,0,0,0,1.93.17c2-.49,2-3.27,1.79-5.31a24.15,24.15,0,0,1,2.78-13.74c1.4-2.58,3.75-5.14,6.68-5a9.44,9.44,0,0,1,3.8,1.33l32.37,16.83a147.26,147.26,0,0,1,16.65,9.6A136.1,136.1,0,0,1,376,192.55c2.25-4.19-.62-9.19-3.38-13.06l-10.22-14.31c-3.53-4.94-7.14-10-12-13.54-5.46-4-12.14-5.87-18.75-7.24a151.68,151.68,0,0,0-34.85-3.11,31.4,31.4,0,0,0-8.51,1.09,17.82,17.82,0,0,0-11.78,12.51c-1,4.23-.55,10.45,2.46,13.9C282.25,172.58,288.34,172.79,293.2,174Z"/><path class="cls-16" d="M303.25,345a19,19,0,0,0,4.7-4.65c2.59-4.1,1.89-9.41.71-14.12a89.07,89.07,0,0,0-8-20.73,80.24,80.24,0,0,0,54.47,15.9c-2.75,8.34-10.49,13.85-17.76,18.77-14.82,10-29.75,20.09-46.18,27.17-14.19,6.11-32.83,11.87-48.4,8.62,1.38-3.43,9.8-4.3,13.27-5.51A168.42,168.42,0,0,0,303.25,345Z"/><path class="cls-17" d="M240.74,176.64c-10.63,1.6-20.14,7.5-28.4,14.37-22.47,18.7-37.39,44.68-52.4,69.77-4.7,7.86-9.57,15.82-16.5,21.8-1.22,1-2.56,2.13-3,3.67s.54,3.6,2.15,3.5a3.75,3.75,0,0,0,2.12-1.18l26.24-23.39c9.18-8.19,18.37-16.38,27.31-24.82,5.59-5.28,11.22-10.83,14.38-17.84,2.86-6.33,3.54-13.49,6.6-19.72,6.12-12.44,21-18.79,34.82-18.24s26.83,6.81,38.63,14.08a216.28,216.28,0,0,1,61.79,57.51c6.63,9.2,12.72,19.54,13,30.88.21,9.74-3.93,19-8,27.84,11.65.59,22.66-9.9,22.63-21.56,0-7.45-3.84-14.3-7.56-20.76L363.86,254a62.88,62.88,0,0,0-7-10.45c-2.93-3.33-6.53-6-10-8.82-18.31-15.09-32.34-35.26-52.27-48.15a90.6,90.6,0,0,0-51.5-14.38c-5.76.17-12.14,1.24-15.67,5.8"/><path class="cls-5" d="M232,170.39a56.56,56.56,0,0,1,42.57-1.69c-6.27-6.62-3.38-18.36,3.78-24s16.93-6.58,26-6.26,18.37,1.65,27.26-.35c-.35-2.56-2.78-4.27-5.07-5.46-12.55-6.53-27.21-7.25-41.35-7.84-30.38-1.27-61.52-2.44-90.44,7-4.69,1.53-9.38,3.38-13.14,6.56s-6.48,7.94-6.15,12.85L193.24,145c9.72-3.38,22.38-6.8,31.53.23C228.16,147.83,235.55,168.75,232,170.39Z"/><path class="cls-18" d="M391,329.51c-3-1.08-6.49.07-9.34,1.48-30,14.89-31.66,54.39-60.17,71.35-2.69,1.6-6,4.09-4.58,6.62a5.83,5.83,0,0,0,2.27,1.92c13.8,8,30.83,10.56,47.37,12.15,12.76,1.22,27.31,1.47,36.51-6.23,5.13-4.29,7.64-10.39,9.05-16.43,3.4-14.58.19-27.76-5.17-41.57C403.83,350.88,400.82,333,391,329.51Z"/><path class="cls-19" d="M230.6,218.38c5.44,3.74,10.95,7.53,17.16,9.77s13.29,2.82,19.32.12c4.39-2,7.88-5.47,11.25-8.9l8.78-8.93a14.25,14.25,0,0,0,3.46-4.64c2.12-5.54-3.09-11.1-8.22-14.09-14.94-8.72-34.51-10.06-49.55-1.5-3.81,2.17-7.37,5-9.5,8.84C218.06,208.45,223.4,213.42,230.6,218.38Z"/><path class="cls-19" d="M223.66,212.42c-24.79,25.09-49.52,50.32-71.94,77.55-3.35,4.06-6.71,8.3-8.26,13.33-2.31,7.5-.19,15.8,3.88,22.5s9.92,12.12,15.69,17.43c2.39,2.2,5,4.49,8.15,5.08,5,.91,9.58-2.51,13.32-5.89,20.43-18.47,36.37-42.1,59.43-57.15,3.85-2.51,8-4.88,10.64-8.65,3.93-5.61,3.7-13,3.16-19.87q-1.09-13.87-3-27.66"/><path class="cls-19" d="M294,203.66c2.38-2.26,6.2-.11,8.69,2L329.88,229c9.16,7.85,18.42,15.8,25.52,25.55s12,21.63,11.12,33.67-8.26,24-19.65,28c-15,5.22-31.1-4.06-42.48-15.09s-21.18-24.53-35.68-30.9c-2.8-1.23-5.92-2.32-7.59-4.87-1.26-1.92-1.46-4.33-1.61-6.63l-2-28.68"/><path class="cls-19" d="M149.07,275.86c17.48-14.76,26.07-37.16,37.85-56.76,15.27-25.41,39.88-48.44,69.51-49.28,17.44-.5,34.38,6.89,48.35,17.35s25.39,23.89,36.66,37.21"/><path class="cls-19" d="M204.67,188.33a26.27,26.27,0,0,0-5.62-22.94,6.39,6.39,0,0,0-2.49-2c-1.82-.67-3.8.19-5.55,1l-15.26,7.39c-11.34,5.49-23.33,11.57-29.62,22.48-4.52,7.85-5.47,17.2-6,26.25-.26,4.63-.43,9.36.9,13.8,3.08,10.35,13.52,17.12,17,27.35"/><path class="cls-19" d="M303.62,180.12q-2.29-11.83-3.53-23.83c-.29-2.78-.07-6.36,2.55-7.33,2.46-.91,4.87,1.29,6.73,3.14,17.59,17.42,47.53,19,62.58,38.67a39.73,39.73,0,0,1,4.81,39.12c-2.93,6.77-7.9,13.23-7.35,20.59.7,9.38,9.83,15.49,15,23.33,9.17,13.88,3.79,35.15-10.87,43"/><path class="cls-19" d="M179.4,145.45c16.71-11.79,37.14-17.48,57.53-19.15s40.88.44,61.16,3.07c11.7,1.52,23.76,3.34,33.76,9.58"/><path class="cls-19" d="M125.57,245.35a139.79,139.79,0,0,0,20.3,89.84"/><path class="cls-19" d="M144.42,350.84l-19,42.67c-4.29,9.62-8.66,19.63-8.42,30.16"/><path class="cls-19" d="M395,323.87c-1.36,14.21,8.25,26.75,15.5,39,10.6,18,16.92,39,14.58,59.78"/><path class="cls-19" d="M395.87,303.46a44,44,0,0,1,3-21.09c1.84-4.49,4.49-9,3.88-13.85-.36-2.85-1.84-5.43-3.32-7.89-4-6.74-8.41-13.52-10-21.21A32.08,32.08,0,0,1,395.13,214"/><path class="cls-19" d="M174.07,146.54c-6.92-.51-13.19,3.75-18.82,7.82l-24.67,17.84-23,16.63c-16.56,12-33.5,24.33-44.74,41.4-2.13,3.24-4.1,6.89-3.82,10.75.38,5.16,4.59,9.1,8.5,12.49,1.73,1.5,3.75,3.1,6,2.88,1.92-.18,3.47-1.61,4.7-3.09,4.08-4.93,6.21-11.17,9.84-16.43s9.84-9.73,16-8.19c7.75,1.94,14.92,13.52,20.92,4.48,1.16-1.74.11-9.13.79-11.68,1.51-5.72,5.6-11.78,8.36-17a307.57,307.57,0,0,1,18.59-30.56C155.39,170.12,169.79,146.22,174.07,146.54Z"/><path class="cls-19" d="M395.61,155c10.1,8.23,15.8,21.37,27,28,5.92,3.51,13.47,5.36,16.85,11.35,3.87,6.86.61,16.73,6,22.47-6.51,3.09-14.07-1.12-19.56-5.79s-11.22-10.28-18.42-10.35c-4.22,0-8.57,1.9-12.53.43-2.28-.84-4-2.7-5.66-4.49l-39.47-42.93c-6-6.48-12.11-13.09-16.05-21,8.22-2.21,22.09,6.84,30.44,9.25C375.16,145.1,386.57,147.66,395.61,155Z"/><path class="cls-19" d="M256.3,296.75a17.3,17.3,0,0,0-6.75,5.32,23.13,23.13,0,0,0-2.9,7.33q-8.74,32.35-19.69,64.06c7.82,1.72,15.75-1.74,23-5.12l38.48-17.9c3.86-1.8,7.85-3.68,10.66-6.88,4.9-5.59,5.13-14,3.27-21.16C296.69,300.43,280.2,285,256.3,296.75Z"/><path class="cls-19" d="M251,302.28a30.06,30.06,0,0,0-42.46,15c-1.5,3.71-2.25,7.71-4.07,11.26-5.47,10.68-18.89,14.77-26.11,24.35,5.89,4.7,14,4.92,21.34,6.83,9.12,2.39,17.21,7.59,25.12,12.71"/><path class="cls-19" d="M188.61,375c14.63,13.73,34.77,19.78,54.42,23.84,10.9,2.25,22,4,33.1,3.94,41.35-.36,80.87-29.58,93.31-69"/><path class="cls-19" d="M189.39,202.11c-6.29-4.14-13.23-8.45-20.73-7.76-10.27.95-17.53,11.36-18.68,21.61-.49,4.37-.05,9.09,2.59,12.6,3.4,4.51,10.11,5.93,15.28,3.66s8.6-7.77,8.93-13.41"/><path class="cls-19" d="M323.36,178.32a81.62,81.62,0,0,1,38.49,17,16.43,16.43,0,0,1,5,5.65c3.22,7.06-3.26,14.15-9.43,16.58-4.36,1.71-12.14,3.76-16.09,1.07-3.34-2.27-6.18-9.93-7.52-13.61"/><path class="cls-19" d="M201.24,150.75a41.63,41.63,0,0,1,19.85-6.25,6.6,6.6,0,0,1,4.3.85c1.32,1,1.8,2.7,2.16,4.3A95.15,95.15,0,0,1,229.61,175"/><path class="cls-19" d="M316.53,142.68c-7.39,2.9-15.51-3.15-23.37-2.13-5.23.68-9.66,4.54-12.17,9.18a23.35,23.35,0,0,0,.08,21.9"/><path class="cls-19" d="M227.35,211.67c2.67-1.1,5.62-1.15,8.47-1.56s5.85-1.36,7.59-3.66,1.4-6.26-1.25-7.41"/><path class="cls-19" d="M267.63,197.48c-.59,6.35,7.6,11.55,13.1,8.31"/><path class="cls-19" d="M254.14,210.69a27.83,27.83,0,0,1,3.1,14.28"/><path class="cls-19" d="M172.06,200.44a11.81,11.81,0,0,0-7.57,1.9,7.2,7.2,0,0,0-3.07,6.88c.66,3.55,4.53,5.75,8.14,5.77a7.38,7.38,0,0,0,4.08-1c2.33-1.51,3.12-4.75,2.29-7.4a11.16,11.16,0,0,0-5.38-6.08"/><path class="cls-19" d="M334.12,189.66a8,8,0,0,0-7.68,4.49,6.88,6.88,0,0,0,2.37,8.36,12.45,12.45,0,0,0,5.16,1.44,6.2,6.2,0,0,0,2.4,0,4.53,4.53,0,0,0,2.34-1.78,8.18,8.18,0,0,0-5.07-12.92"/></g></svg>