<svg xmlns="http://www.w3.org/2000/svg" viewBox="0 0 537.4 542.4"><defs><style>.cls-1{fill:#ffa08f;}.cls-2{fill:#644c40;}.cls-3{fill:#7d614f;}.cls-4{fill:#5c4650;}.cls-5{fill:#ba9681;}.cls-6{fill:#362b2a;}.cls-7{fill:#7f7f7f;}.cls-8{fill:#bb8377;}.cls-9{fill:#452e2c;}.cls-10{fill:#c08761;}.cls-11{fill:#262626;}.cls-12{fill:#020202;}.cls-13{fill:#6a3f33;}.cls-14{fill:#0c0d0d;}.cls-15{fill:#666667;}.cls-16{fill:#b68194;}.cls-17{fill:#a97b5b;}.cls-18{fill:#755b66;}.cls-19{fill:#d0bec5;}.cls-20{fill:#ad8060;}.cls-21{fill:none;stroke:#070707;stroke-miterlimit:10;stroke-width:0.88px;}</style></defs><title>shep</title><g id="Layer_1" data-name="Layer 1"><rect class="cls-1" x="-11.53" y="-9.8" width="558.98" height="564.18"/></g><g id="Layer_2" data-name="Layer 2"><path class="cls-2" d="M146.07,240.26c-2.34-.67-4.84-.31-7.24,0l-2.7.4a3.25,3.25,0,0,0-1.18.33,2.2,2.2,0,0,0-.93,2.07c.06.79.71,1.45.76,2.25.25,3.85-.52,3,1.42,6,.52.8,5.25,5,6.13,4.64a2.24,2.24,0,0,0,.86-.81C146.1,251.25,155.41,242.93,146.07,240.26Z"/><path class="cls-3" d="M162.16,190.73a26.62,26.62,0,0,0-5.18,23c1,4.14,3.08,8.13,2.88,12.39-.17,3.38-1.75,6.51-3.3,9.51-4.71,9.14-9.56,18.47-17,25.53s-17.11,11.46-23.58,19.34c4.95,3.26,11.61,0,16-4s8.56-9,14.44-9.84a3.4,3.4,0,0,1,3.15.83,3.72,3.72,0,0,1,.62,2,35.22,35.22,0,0,1-1,12.13c-1.12,4.26-2.78,9.54.49,12.5s12.74,6.21,16.69,4.19c19.22-9.84,42.49-7.33,61-18.46,7.31-4.39,9.46-20.16,18-20.88,5.94-.5,11.72,1.66,17.51,3.08a71.87,71.87,0,0,0,46.86-4.54,15,15,0,0,0,5.32-3.59c2.11-2.49,2.57-5.94,2.94-9.18.58-5.1,1-10.78-2.14-14.83s-8.74-5-13.73-6.21c-12-2.89-24.21-9.8-28.44-21.43-2.7-7.42-2.45-16.91-9-21.35-4.54-3.09-10.6-2.32-15.9-3.77-2.75-.75-5.39-2.14-8.25-2.15-2.41,0-4.7.95-7,1.7a43,43,0,0,1-21.75,1.33c-5.42-1.08-10.66-3.21-16.18-3.49-7.07-.35-10.65,4.09-16.47,6.68C172.6,184.14,167,184.84,162.16,190.73Z"/><path class="cls-4" d="M209.91,331.09c-7.08,4.75-13.77,10.24-21.75,13.4-2.46,1-5.11,1.77-7,3.56a15.92,15.92,0,0,0-2.84,4.1c-2.8,5.13-5.65,10.37-6.68,16.09a25.78,25.78,0,0,1-1.25,5.65c-1.64,3.83-5.73,6.08-9.67,7.75a44.6,44.6,0,0,0,9.68-2.29,43.57,43.57,0,0,0,8.37-4.91l46.18-32c4.25-2.94,18.93-12.46,12.11-18.88C230.79,317.69,215.17,327.57,209.91,331.09Z"/><path class="cls-5" d="M168.28,431.84a4,4,0,0,0,4.61,4.14q32.91,1.79,65.89,1.64c7.27,0,15-.28,21-4.31,5.34-3.56,8.5-9.52,11.4-15.26,3.31-6.54,6.61-13.26,7.63-20.52s-.61-15.28-5.94-20.32c-3.4-3.21-8.3-5.33-9.81-9.76-1.23-3.58.22-7.49,1.92-10.87s3.71-6.83,3.66-10.61-3.28-7.81-7-7.06c-4.19.85-5.17,6.26-5.64,10.5-.66,6-2.7,12.66-8.17,15.15s-11.83-.35-17.79-1.48c-9.6-1.83-19.51,1.75-26.66,8.19-5.37,4.84-7.27,11.54-12,16.74-6.32,7-17,8.29-22.07,16.62C164.5,412.68,166.46,423.2,168.28,431.84Z"/><path class="cls-6" d="M148.39,266.23a5.13,5.13,0,0,1,2.32-.81c2.33,0,3.68,2.79,3.74,5.18.18,6.85-5.1,12.64-6.07,19.42a5.23,5.23,0,0,0,.6,3.82c1,1.37,2.87,1.62,4.53,1.75l25.29,2.06c5.8.47,11.61.95,17.42,1,5.13.08,10.26-.15,15.38.18,15.41,1,32.81,1.51,44.69,11.62,3.38,2.88,6,12.19,7.66,16.44,3.78,9.82-.58,16.25-2.87,25.37-1.32,5.26-4.32,10.32-9,12.82-8.17,4.34-18-.18-27.21.26-8.72.41-16.64,5.35-23.3,11.14s-12.51,12.56-19.6,17.78c-13.61,10-34.19,14.85-50.49,10.83-1.51-.37-.57-2.18-1.16-3.65-.68-1.68.53-3.64,2.12-4.45a13.24,13.24,0,0,1,5.2-.92c8.9-.6,17.14-4.77,25.11-8.87,23.12-11.88,46.5-23.93,66.11-41.21,3.23-2.85,6.45-6,8-10s1.13-9.28-2.18-12c-4.11-3.44-10.22-1.72-15.12.38-22.68,9.74-42.24,29-66.37,33.79-8.33,1.66-18.93,1.53-27.41,1.77-6.54.18-12.49-3.75-18.86-5.29s-12.53-4.86-16.37-10.29c-5.78-8.18-11.21-19.91-8.45-29.61,1.17-4.12,8.68-7.7,10.92-11.32,5.71-9.24,15.76-15.42,25-20.47,4.36-2.39,9.2-3.54,13.6-5.82C137.57,274,142.57,269.45,148.39,266.23Z"/><path class="cls-6" d="M202.36,227.68a8.34,8.34,0,0,0-4.62-6.63,17.35,17.35,0,0,0-8.2-1.66c-3.41,0-7.12.6-9.43,3.1a13.61,13.61,0,0,0-2.76,6,81.87,81.87,0,0,0-2.49,24.36,5.14,5.14,0,0,0,.68,2.75,5,5,0,0,0,2.18,1.51,44.7,44.7,0,0,0,16.07,3.77A89.24,89.24,0,0,0,210,259.63c2.19-.31,4.49-.65,6.27-2a12.29,12.29,0,0,0,3.34-4.41,10.06,10.06,0,0,0,1.47-4.68c0-3.45-3.2-5.93-6-7.88s-6-4-9.49-4.36a33.55,33.55,0,0,1-4.82-.3,3.65,3.65,0,0,1-2.51-1.82C200.07,232.4,202.5,230.76,202.36,227.68Z"/><path class="cls-7" d="M139.53,240.73a1.81,1.81,0,0,0-.94.17,1.78,1.78,0,0,0-.65,1,13.29,13.29,0,0,0-.86,4.08,7.79,7.79,0,0,0,1.24,4.29A4.38,4.38,0,0,0,140,251.9c1.62.8,3.66,0,4.8-1.44a11.68,11.68,0,0,0,2-5C148,239.74,143.6,240.73,139.53,240.73Z"/><path class="cls-7" d="M198.15,240.81a20.64,20.64,0,0,0-2.66,4.45,6.21,6.21,0,0,0,4.24,8.8,20.65,20.65,0,0,0,5.9.72,47.79,47.79,0,0,0,11.19-.59c1.2-.26,2.59-.83,2.79-2,.17-1-.66-2-1.44-2.68C214.54,246.11,202.83,234.3,198.15,240.81Z"/><path class="cls-8" d="M275.75,157.46a21.74,21.74,0,0,1,4.66-7.16c4.81-5.28,11.94-9.7,18.81-7.72,6.11,1.76,9.93,8.19,10.6,14.52s-1.17,12.61-3,18.71L303.49,187l-7.36,24.66c-.59,2-2,4.42-4,3.89a4,4,0,0,1-2.05-1.86c-5.26-7.77-12.87-17.69-14.2-27.08C274.92,179.48,273.34,164.24,275.75,157.46Z"/><path class="cls-8" d="M165.18,149.89c-.88-2.9-2-5.84-1.78-8.84s2-6.17,5.2-7a9.82,9.82,0,0,1,4.92.22c10.34,2.69,16.54,13.66,14.68,23.35-1.69,8.78-9.9,18.08-19.48,20.24C166.06,169.39,168,159,165.18,149.89Z"/><path class="cls-9" d="M259.5,167.95c3.37-7.08,7-14.24,12.67-19.83s14-9.4,22.11-8.11c11.7,1.87,19,13.47,20.78,24.53s-.27,22.38,1,33.51c3.68.85,7.31-1.75,9.39-4.73,4.88-7,4.46-16.19,2.34-24.33S322,153,321,144.7c-1.81-14.87,4.83-29.44,6.12-44.36a12.52,12.52,0,0,0-.69-6.42c-1.4-3-4.77-4.77-8.15-5.51-10.93-2.39-21.79,3.94-30.22,10.92a133.48,133.48,0,0,0-36,46.61c-2.56,5.53-10.34,19.1-8.37,25.24C247.15,181.84,256.32,174.61,259.5,167.95Z"/><path class="cls-9" d="M165.65,185.85c1.17-2.91,1.07-6.15.95-9.28l-1.35-35.13a10.37,10.37,0,0,1,.73-5.31c1.46-2.73,5.16-3.59,8.14-2.76s5.41,2.95,7.73,5c2.88,2.54,5,9,8.63,7.63,11.57-4.43.5-25-3.44-36.71-1.33-4-3.1-8-6.21-10.76s-7.86-4.14-11.6-2.26-5.51,6.43-6.77,10.54c-5.56,18.09-9.84,36.65-11.72,55.51-.63,6.35-2.78,16.53.55,22.59S162.4,193.91,165.65,185.85Z"/><path class="cls-10" d="M276,376.53c2.74,5.13,3.31,11.15,3,17a61,61,0,0,1-19.18,40.9l126.09.18c6.8,0,44.32.89,44.32.89l-22.9-18.14s.77-14.15-2.65-20.1c-4.81-8.36-15.27-11.28-22.83-17.26-17.59-13.92-16.43-40.84-27.26-60.49-6.93-12.58-18.94-22.32-23.32-36-3.33-10.4-3.61-24.43-13.91-28.06-7.94-2.8-16,3.14-23.81,6.14-12.67,4.85-20.8-2.62-34-6-4-1-14.16,2.57-18.21,3.23-6,1-10.74,5.56-15.29,9.66-8.76,7.89-48.87,18.14-66.63,24.64a2.26,2.26,0,0,0,.35,4.34c21.72,4.17,70.81-1.56,85.53,4.91a43.42,43.42,0,0,1,24.07,27.9c2.54,9.3,1.52,18.77-1.81,27.69-1.51,4.05-4.35,6.14-2.56,9.63C266.51,370.39,273.8,372.34,276,376.53Z"/><path class="cls-10" d="M188.52,147.21c-.05-1.3,1.62-2.25,2.44-3.25,1.2-1.45,4-4.7,5.28-3.35s3.34,7.5,3.92,9.28a43.21,43.21,0,0,0,10.49,17.25c2.21,2.34,6.94,7,5.43,9.88-6.62-.18-18.51-5.08-25.92-2.21-5.36,2.08-29.26,17.61-34.64,14.64C170.86,184.44,189,160.4,188.52,147.21Z"/><path class="cls-11" d="M86.51,312.44a16.37,16.37,0,0,0-13.62,7.17c-.76,1.14-1.39,2.58-.89,3.86a5,5,0,0,0,1.32,1.68L94.72,345.6a10.51,10.51,0,0,0,4.51,3c3.51.85,6.75-2,9.26-4.58,3.35-3.47,6.81-7.11,8.36-11.68a16.69,16.69,0,0,0-1.15-13.21C108.38,305.75,98.25,312.62,86.51,312.44Z"/><path class="cls-12" d="M106.87,336.48A15.42,15.42,0,0,0,92,329.38a1.47,1.47,0,0,0-1,.4,1.44,1.44,0,0,0-.22,1A10.89,10.89,0,0,0,100.69,341a5.14,5.14,0,0,0,3-.59,2.58,2.58,0,0,0,1.26-2.66"/><path class="cls-13" d="M198.54,243.36a6.9,6.9,0,0,0-.81,4.13,8.27,8.27,0,0,0,.68,3.85,5.32,5.32,0,0,0,.63.91c2.42,2.85,6.76,3.5,10.29,2.27a5.49,5.49,0,0,0,2.29-1.35,5.87,5.87,0,0,0,1.15-4.36,9.3,9.3,0,0,0-1.73-5.28C208.76,240.63,200.78,240.16,198.54,243.36Z"/><path class="cls-14" d="M204.91,245.19c-1.31-.16-3-.12-3.5,1.09s.57,2.4,1.64,3.09a4.44,4.44,0,0,0,3.49.84c1.19-.34,2-1.89,1.28-2.88a3,3,0,0,0-.9-.71l-2.2-1.32"/><circle class="cls-15" cx="204.73" cy="245.3" r="2.21"/><path class="cls-13" d="M139.51,243.16a5.58,5.58,0,0,0-.4,2.67,6.75,6.75,0,0,0,.34,2.49,3.6,3.6,0,0,0,.32.59,4.06,4.06,0,0,0,5.14,1.47,2.71,2.71,0,0,0,1.14-.87,4.64,4.64,0,0,0,.57-2.82,7.26,7.26,0,0,0-.86-3.41C144.62,241.4,140.63,241.09,139.51,243.16Z"/><path class="cls-14" d="M144.21,241.22c-1.31-.16-3-.12-3.5,1.09s.57,2.4,1.64,3.09a4.44,4.44,0,0,0,3.49.84c1.19-.34,2-1.89,1.28-2.88a3,3,0,0,0-.9-.71l-2.2-1.32"/><circle class="cls-15" cx="145.76" cy="243.27" r="2.21"/><path class="cls-6" d="M144.85,239.1c3,.55,5.74,3.39,5.06,6.34,2.21-1.36,3.76-2.56,4.48-5s1.81-4,3-6.36c.77-1.57,2-3.87,2.28-5.6a20.25,20.25,0,0,0-.07-5.91c-.56-2-1.94-11.43-4-11.69-1.32-.17-5.63,5.67-6.63,6.54-4,3.47-4.69,10.73-9,13.8-1.93,1.38-8.27,4.67-5.89,8.06C135.83,241.72,142.37,238.64,144.85,239.1Z"/><path class="cls-16" d="M123.1,366.92c-2.88,1.17-4.17,4.45-5.17,7.39-1.06,3.13-2.13,6.54-1.1,9.68a15.42,15.42,0,0,0,3.15,4.88l7.4,8.8c1.36,1.62,2.82,3.3,4.81,4,2.73,1,5.86-.19,8-2.15s5.84-.82,7.13-3.41c1.54-3.09,1.42-7.37,1.48-10.82.05-3.1-1.19-10.06,1.75-11,3.78-1.24,11.79,6.22,15.77,6.35,2.31.08,3.53-4.79,4.81-6.72,4.94-7.45,7.6-18.45,7.61-27.39,0,5.37-37.79,12.82-40.92,13.76-4.25,1.27,1.73-.9-1.61,1.19C131.35,364.5,128.33,364.78,123.1,366.92Z"/><path class="cls-17" d="M172,224.31c1-5.5,5.09-10.6,10.55-11.84,1.81-.41,3.71-.41,5.46-1,2.44-.83,4.33-2.74,6.15-4.56,2.71-2.71,5.58-5.45,9.17-6.82s8.1-1,10.68,1.8c2.41,2.64,2.61,6.69,4.72,9.57a20.55,20.55,0,0,0,4.78,4.12,51.31,51.31,0,0,1,20.61,35.93,3.54,3.54,0,0,1-.35,2.4,3.22,3.22,0,0,1-2.19,1.1c-4.69.78-9.45-1.14-13.39-3.81s-7.3-6.1-11.14-8.91a43,43,0,0,0-15.61-7.13c-1.05-2.9,2.25-5.62,2.42-8.7.13-2.32-1.63-4.42-3.73-5.4a16.64,16.64,0,0,0-6.82-1.11c-2.85,0-5.81,0-8.41,1.17-7.11,3.19-5.58,15.25-10.44,17.1A20.06,20.06,0,0,1,172,224.31Z"/><path class="cls-18" d="M168.25,387.41l20.34-11.71c17.23-9.92,34.95-20.26,46.95-36.11,1.59-2.1,3.12-4.43,3.3-7.06s-1.48-5.56-4.1-5.87c-1.77-.21-3.45.77-4.92,1.78-9.16,6.28-16.42,14.89-24.49,22.52-9.47,9-20.11,16.57-31.09,23.54-7.91,5-22.24,9.72-26.19,18.73C155,395,162.41,390.77,168.25,387.41Z"/><path class="cls-19" d="M157.91,377.81q-1-1.27-2-2.5a1.47,1.47,0,0,0-1-.68c-.51,0-.86.49-1.1.94a26.13,26.13,0,0,0-2.95,9.22,1.89,1.89,0,0,0,.11,1.14,2,2,0,0,0,1.41.76,12.21,12.21,0,0,0,4.11.36,4.34,4.34,0,0,0,3.36-2.14,4.57,4.57,0,0,0,.41-2.13,7.87,7.87,0,0,0-2.89-5.91"/><path class="cls-19" d="M191.62,352a35.68,35.68,0,0,1-6.92,5.08,3,3,0,0,1-1.87.54c-1.2-.18-1.76-1.63-1.76-2.85,0-1.9,1-4,2.78-4.53,2.51-.79,4.81,1.5,7.23,2.52"/><path class="cls-19" d="M191.89,346.38a2,2,0,0,0,.27,1,1.86,1.86,0,0,0,.69.54c4.2,2.2,13.61-2.31,9.06-7.24C197.63,336.08,191.6,341.45,191.89,346.38Z"/><path class="cls-19" d="M206,330.46a9,9,0,0,1-3.44,3.31c-1.23.66-2.8,1.28-3,2.66-.17,1.18.82,2.17,1.71,3,1.3,1.12,3.08,2.31,4.58,1.47,1.06-.6,1.39-1.93,1.82-3.07a10.61,10.61,0,0,1,5.12-5.68,11.28,11.28,0,0,0,2-1.07c1.43-1.12,1.82-3.09,2.12-4.88-4.33-.75-8.43,2-12,4.57"/><path class="cls-20" d="M253.07,199.3c8-1.89,32.51,19,36.17,21.77,4.17-7.75-15.32-34.63-14.31-43.22.69-5.88,4.4-22.94,8.1-28,2.14-2.9-.08-3,3.35-4.1,5.19-1.69,11.14-2.85,15.89-.16a16.12,16.12,0,0,1,5.37,5.46c5.46,8.47,6.25,19.36,3.87,29.15S303.88,198.9,298,207.05c-1.23,1.7-2.54,3.48-2.83,5.56-.46,3.31-3.73,7.53-.63,8.78s18,6.87,21.17,5.69c8.43-3.19,8.06-10.17,10.6-18.82s2.79-26.06,2.6-35.08c-.14-6.6-.29-13.28-2.09-19.63s-5.44-12.44-11.13-15.79c-4.12-2.43-9-3.26-13.8-3.34a49.16,49.16,0,0,0-26.33,7.18C267.28,146.65,224.27,206.11,253.07,199.3Z"/><path class="cls-21" d="M245.14,171.66c6.59-7.58,8.83-17.86,12.67-27.15,8.51-20.59,25.11-36.57,41.26-51.91,3.26-3.1,6.9-6.37,11.38-6.73,7.92-.63,13.53,8.33,13.64,16.27s-3.21,15.55-3.9,23.46c-1.34,15.33,7.15,29.62,10.52,44.64,1.67,7.45,2.08,15.12,2.48,22.74.23,4.42.44,9-1.09,13.13s-5.28,7.82-9.7,7.82"/><path class="cls-21" d="M239.45,173.93a41.42,41.42,0,0,1-24.36,4c-5.61-.8-11-2.75-16.68-3.22s-11.93.9-15.36,5.41"/><path class="cls-21" d="M153.27,198.21c-5.89-9.47,1.07-21.68.23-32.81-.43-5.73-3-11.13-3.56-16.84-1.54-15,10.44-28.74,9.85-43.83-.07-1.72-.29-3.52.37-5.11,1.13-2.72,4.6-3.87,7.48-3.22s5.24,2.67,7.29,4.79c19.5,20.17,20.69,53.49,41.16,72.68"/><path class="cls-21" d="M320.48,227.08c-5,16.28,3.19,33.39,11.15,48.44L362,332.92c3.16,6,6.38,12.19,6.7,18.93.16,3.39-.39,7,1.15,10s4.9,4.78,7.87,6.57a54.47,54.47,0,0,1,20.92,23.08c3.83,8,5.63,16.93,9.31,25.05s10,15.86,18.69,17.73"/><path class="cls-21" d="M243.41,367.35a39,39,0,0,0-36.84,5c-4.66,3.49-8.46,8-12.67,12C179.07,398.5,160.44,414.9,140,414.82c-5.27,0-6.9-1.37-8-6.54-1.11-5.4,11.75-5.14,16.8-7.36,31.88-14,54.19-34.43,79.8-58,3.14-2.89,6.17-6.14,7.54-10.18s.69-9.06-2.64-11.72c-5.49-4.4-13.46-.23-19.22,3.81-18.67,13.1-38.62,25.2-60.83,30.39s-37.84,6.75-55.85-7.25"/><path class="cls-21" d="M168,400.92a151.22,151.22,0,0,0,.9,34.54"/><path class="cls-21" d="M161.2,217.86c-4.39,18.28-12.78,36.08-26.71,48.7-4.4,4-9.29,7.4-14,11a244.47,244.47,0,0,0-38.31,35.94"/><path class="cls-21" d="M161.18,296.2c15.74,8.8,51.92,7.54,69.77,5,3.27-.47,6.54-1.14,9.84-.94,5.07.3,9.79,2.63,14.13,5.28a27,27,0,0,1,7.74,6.43c3.44,4.57,4.16,10.59,4.55,16.3a239.47,239.47,0,0,1,.4,24.93"/><path class="cls-21" d="M207.58,241.43c3.92,1.45,7.29,4.05,10.59,6.62.71.55,1.5,1.32,1.29,2.19a2.31,2.31,0,0,1-1.27,1.28,34.52,34.52,0,0,1-8.67,3.41c-3.44.84-7.28,1.09-10.33-.7-3.26-1.91-5.46-7.23-3.63-10.83C197.69,239.24,203.63,240,207.58,241.43Z"/><path class="cls-21" d="M146.74,218.46a15.56,15.56,0,0,1-4.45,10.36c-2,2-4.5,3.45-6.23,5.67s-2.39,5.72-.39,7.7"/><path class="cls-21" d="M137.82,244c-.6-1.19.91-2.31,2.15-2.78,2.07-.77,4.53-1.39,6.35-.14a4.7,4.7,0,0,1,1.61,4.88,9.65,9.65,0,0,1-2.86,4.55,4.45,4.45,0,0,1-2.78,1.54c-1.67.06-2.92-1.52-3.56-3.06a13.11,13.11,0,0,1-1-5.86"/><path class="cls-21" d="M199.1,233.39c3.28-.52,5.49-4.15,5.06-7.45s-3-6-6.07-7.35a19.28,19.28,0,0,0-9.8-1,14.48,14.48,0,0,0-5.66,1.6c-3.53,2-5.25,6.23-5.87,10.27s-.39,8.18-1.25,12.17c-1,4.59-3.4,9.18-2.24,13.73,1,4.07,4.83,7,8.88,8.1s8.35.69,12.5.07a133.65,133.65,0,0,0,29.78-8.06"/><path class="cls-21" d="M135.92,357.18c-.36,3-1.16,6.63-4,7.64a12,12,0,0,1-4,.24,13.17,13.17,0,0,0-9.11,3.71,5.69,5.69,0,0,0-1.6,2.39,7.1,7.1,0,0,0,.21,3.59,149.38,149.38,0,0,0,6.16,19.76,23.44,23.44,0,0,0,4.26,7.66c2,2.15,5,3.6,7.88,3,2.4-.47,4.32-2.2,6.08-3.89,3.92-3.78,7.87-8.08,8.7-13.46.34-2.23.12-4.52.51-6.74a12.64,12.64,0,0,1,4.76-7.82A8,8,0,0,0,171.38,371c0-3.17-1.75-6.6-.14-9.33a13.63,13.63,0,0,1,3-2.89,11.69,11.69,0,0,0,3.56-10.9"/><path class="cls-21" d="M151,385.88c2.58,1.16,5.75,2.27,8.06.63s2.29-5.18,1.95-8.08"/><path class="cls-21" d="M181.48,357.56a57.8,57.8,0,0,0,6.9-2.29c1.62-.65,3.46-1.76,3.44-3.5,0-1.59-1.68-2.69-3.25-2.91s-3.17.13-4.75,0a16.5,16.5,0,0,0-1.49,7.45"/><path class="cls-21" d="M196.88,348.46a8.68,8.68,0,0,0,6.26-6.54,2.46,2.46,0,0,0-.54-2.45,2.83,2.83,0,0,0-2-.34l-5,.41a4.12,4.12,0,0,0-1.81.43,4.17,4.17,0,0,0-1.51,2.93l-.81,4a1.44,1.44,0,0,0,0,.9c.23.49.88.55,1.42.55h4.49"/><path class="cls-21" d="M217.71,324c1,1.18-.26,2.87-1.37,3.93a37.45,37.45,0,0,0-8.18,11.59c-.84,1.86-4.88,1.65-6.59.53a4.77,4.77,0,0,1-1.83-5.39"/><path class="cls-21" d="M117,279.88A39.66,39.66,0,0,0,147.48,263"/><path class="cls-21" d="M112.9,340.38c3.69-3.37,4.47-8.86,4.42-13.85a22.52,22.52,0,0,0-1.76-9.53,13.71,13.71,0,0,0-14.13-7.48c-3.64.6-6.9,2.72-10.55,3.24-2.93.42-6-.22-8.84.49a9.71,9.71,0,0,0-4.66,16.19c1.63,1.68,3.79,2.71,5.66,4.1,2.78,2.07,4.89,4.92,7.51,7.19,2.45,2.11,9.84,7.49,13.29,6.75C106,347,111.12,342,112.9,340.38Z"/><path class="cls-21" d="M105,336.4a7.86,7.86,0,0,0-11.25-6.21,3.64,3.64,0,0,0-1.55,1.26c-1.13,1.81.53,4,2.08,5.48,1.88,1.76,4,3.58,6.55,3.85s5.5-1.84,5-4.38"/><path class="cls-21" d="M275.56,187.3l.69-9.61c.57-7.89,1.17-16,4.31-23.22s9.35-13.7,17.17-14.9c4.55-.7,9.71.72,12.21,4.58a15.25,15.25,0,0,1,1.75,4.31c3.25,11.85,1.66,24.61-2.3,36.25s-10.17,22.35-16.34,33"/><path class="cls-21" d="M184,168c4.71-7.72,3.27-17.67.46-26.26-1.58-4.81-4.92-10.39-10-9.84-2.72.3-4.94,2.48-6.07,5a23.79,23.79,0,0,0-1.55,8c-.93,12.26-1.84,24.79,1.26,36.69"/><path class="cls-21" d="M199.44,242.56c-2,2-1.67,5.31-.51,7.84a4.76,4.76,0,0,0,1.84,2.3,5.62,5.62,0,0,0,1.83.52c2.13.35,4.41.68,6.36-.23a5.53,5.53,0,0,0,3.06-5.55C211.35,242.11,203.56,238.38,199.44,242.56Z"/><path class="cls-21" d="M202.43,245.28a3.47,3.47,0,0,0-1.52,2.4,1.19,1.19,0,0,0,.09.75,1.4,1.4,0,0,0,.89.54,22.37,22.37,0,0,0,5.45.85,1.19,1.19,0,0,0,.9-.23,1,1,0,0,0,.23-.61,2.22,2.22,0,0,0-1.8-2.29"/><path class="cls-21" d="M207.35,244.09c-.66,0-1.28-.32-1.93-.34a2.26,2.26,0,0,0-2.1,2.85,2.3,2.3,0,0,0,3.4,1,2.34,2.34,0,0,0,0-3.58"/><path class="cls-21" d="M141.52,240.79c-1.2.1-1.79,1.49-2.06,2.66a6.8,6.8,0,0,0-.11,3.67,3.71,3.71,0,0,0,7.21-1.51"/><path class="cls-21" d="M147.57,244.55a2.5,2.5,0,0,1-1.71,1.25,2.25,2.25,0,0,1-2.45-2,2.55,2.55,0,0,1,1.88-2.61,16.09,16.09,0,0,0-4,.45,2.34,2.34,0,0,0-1.45,2c0,1.27,1.34,2.06,2.48,2.6C143.76,247,146,245,147.57,244.55Z"/><path class="cls-21" d="M241.67,366.55c5.17,2.57,11.72-.42,15.06-5.13S261,350.75,261.82,345c2.42.1,4.38,2.17,5.21,4.44s.78,4.76.89,7.18a54.24,54.24,0,0,0,3.25,16.21c2.35,6.4,5.94,12.53,6.34,19.33.5,8.5-4.06,16.38-8.47,23.67l-11.78,19.49"/><path class="cls-21" d="M134.32,242c.91,1,.38,2.64.25,4-.42,4.38,3.55,7.8,7.13,10.38"/></g></svg>